<?xml version="1.0" encoding="utf-8"?>
<!-- Generator: Adobe Illustrator 22.0.1, SVG Export Plug-In . SVG Version: 6.00 Build 0)  -->
<svg version="1.1" xmlns="http://www.w3.org/2000/svg" xmlns:xlink="http://www.w3.org/1999/xlink" x="0px" y="0px"
	 viewBox="0 0 520 520" style="enable-background:new 0 0 520 520;" xml:space="preserve">
<style type="text/css">
	.st0{fill:#D8B8A7;}
	.st1{fill:#031D2D;}
	.st2{fill:#D1DCE5;}
	.st3{fill:#01AEA4;}
	.st4{fill:#DAE3EA;}
	.st5{fill:url(#SVGID_1_);}
</style>
<g id="Layer_3">
</g>
<g id="Layer_1">
	<g id="M1K1JJ.tif">
		<g>
			<circle class="st0" cx="260" cy="260" r="168.6"/>
			
				<ellipse transform="matrix(0.9902 -0.1393 0.1393 0.9902 -47.3578 39.6586)" class="st1" cx="259.5" cy="358" rx="168.6" ry="18.5"/>
			<path class="st2" d="M487.9,161.1c1.4,3.7,2.8,7.3,4.2,11c0.6,1.3,1.2,2.7,1.7,4c1.1,3.3,2.1,6.7,3.2,10c0.6,1.7,1.1,3.4,1.7,5.1
				c1,4,2.1,8,3.1,12c0.3,1.3,0.6,2.7,1,4c1.5,11.3,3.5,22.6,4.5,34c1.6,19.4,1.2,38.8-2.5,58c-1.6-1.5-3.2-2.9-4.8-4.4
				c-54.6-54.6-109.1-109.2-163.7-163.7c-1.6-1.6-3.6-2.7-5.5-4c-2-2.4-3.9-5-5.9-7.3c-8.8-10-20.1-16.3-32.2-21.2
				c-28.3-11.4-55.8-11.5-81.3,7.3c-10.8,8-20.7,17.4-24.4,30.7c-3.2,11.6-5.3,23.7-5.8,35.7c-0.6,13.5,1.1,27.2,1.8,40.8
				c-4.6,0-7.3,3-8,6.9c-0.9,5-1.4,10.3-0.9,15.3c0.8,8.3,2.4,17.7,9.9,21.9c6.8,3.8,7.7,9.7,10.4,15.2c2.4,4.9,4.7,9.9,7.4,14.7
				c4.7,8.4,11.3,15.3,10.6,26.8c-0.9,14-2.7,26.7-13.6,36.5c-2.6,0.3-5.2,0.6-7.9,0.8c-6.4,1.2-12.7,2.4-19.1,3.6
				c-23.6,5.3-44.2,15.4-58.4,36c-10.7,15.5-17.5,32.8-23,50.6c-0.2,0-0.5-0.1-0.7-0.2c-1-1-2-1.9-2.9-2.9c-2.3-2.4-4.7-4.7-7-7.1
				c-1-1-1.9-2-2.9-3c-2-2.3-4.1-4.7-6.1-7c-1.2-1.5-2.5-2.9-3.7-4.4c-1.7-2.2-3.5-4.4-5.2-6.7c-1-1.3-2-2.7-3-4
				c-1.9-2.7-3.8-5.4-5.7-8.2c-0.6-1-1.3-2-1.9-3c-1.8-3-3.6-5.9-5.4-8.9c-0.6-1-1.3-2-1.9-3c-1.7-3.3-3.5-6.6-5.2-10
				c-0.6-1-1.2-2-1.8-3c-1.7-3.7-3.3-7.3-5-11c-0.6-1.4-1.2-2.9-1.8-4.3c-1.1-2.9-2.2-5.8-3.3-8.7c-0.6-1.7-1.3-3.3-1.9-5
				c-1-3.3-2.1-6.7-3.1-10c-0.5-1.7-1-3.4-1.5-5.1c-0.9-3.6-1.7-7.2-2.6-10.9c-0.4-1.7-0.8-3.4-1.2-5c-3.4-18.9-5.3-37.8-4.7-57
				c0.6-19.9,3.3-39.4,8.7-58.5c0.3-1.1,0.4-2.3,0.7-3.4c0.8-2.7,1.6-5.3,2.5-8c3.1-8,6.1-16,9.2-24c1.4-3,2.7-6,4.1-9
				c7.8-12.7,15.6-25.4,23.4-38c5.8-6.8,11.1-14.2,17.5-20.4c11-10.8,22.7-20.9,34.1-31.2c12.6-7.8,25.3-15.5,37.9-23.3
				c3-1.4,6-2.7,9-4.1c8-3.1,16-6.1,24-9.2c2.7-0.8,5.3-1.6,8-2.5c13.2-2.6,26.3-5.6,39.6-7.6c19.3-2.8,38.8-2.5,58.2-0.2
				c7.1,0.8,14.1,2.1,21.2,3.1c1.7,0.4,3.4,0.8,5,1.2c3.6,0.9,7.2,1.7,10.9,2.6c1.7,0.5,3.4,1,5.1,1.5c3.3,1,6.7,2.1,10,3.1
				c1.7,0.6,3.3,1.3,5,1.9c2.9,1.1,5.8,2.2,8.7,3.3c1.4,0.6,2.9,1.2,4.3,1.8c3.7,1.7,7.3,3.3,11,5c1,0.6,2,1.2,3,1.8
				c3.3,1.7,6.6,3.5,10,5.2c1,0.6,2,1.3,3,1.9c3,1.8,5.9,3.6,8.9,5.4c1,0.6,2,1.3,3,1.9c2.7,1.9,5.4,3.8,8.2,5.7c1.3,1,2.7,2,4,3
				c2.2,1.7,4.4,3.5,6.7,5.2c1.5,1.2,2.9,2.5,4.4,3.7c2.3,2,4.7,4.1,7,6.1c1,1,2,1.9,3,2.9c2.4,2.3,4.7,4.7,7.1,7c1,1,1.9,2,2.9,3
				c2.2,2.4,4.4,4.9,6.6,7.3c1.1,1.3,2.2,2.6,3.3,3.9c1.9,2.4,3.8,4.8,5.7,7.1c1.1,1.4,2.1,2.8,3.2,4.1c2,2.7,3.9,5.5,5.9,8.2
				c0.4,0.5,0.7,1,1.1,1.5c2.1,3.3,4.2,6.6,6.2,9.9c0.6,1,1.2,2,1.8,3.1c1.9,3.5,3.9,7.1,5.8,10.6c0.4,0.8,0.8,1.6,1.2,2.4
				c1.4,3,2.8,6,4.2,9C486.6,158.4,487.2,159.7,487.9,161.1z"/>
			<path class="st3" d="M90.4,441.3c5.6-17.8,12.3-35.1,23-50.6c14.2-20.6,34.8-30.7,58.4-36c2.2,3.9,4.4,7.7,6.7,11.6
				c0.9,0.7,1.8,1.3,2.7,2c3.8,1.7,7.7,3.3,11.5,5c1.3,0.3,2.7,0.6,4,0.9c4.7,0.6,9.4,1.2,14,1.7c1.3,0,2.7,0.1,4,0.1
				c5.3-0.2,10.6-0.4,15.9-0.6c2.3-0.2,4.5-0.4,6.8-0.6c5.8-1,11.5-1.9,17.3-2.9c2.3-0.4,4.5-0.8,6.8-1.1c6.4-1.7,12.8-3.4,19.2-5.1
				c2.7-0.9,5.3-1.7,8-2.6c8.4-3.3,16.7-6.6,25.1-10c2.7-1.4,5.3-2.7,8-4.1c0.7-0.4,1.4-0.7,2-1.1l0,0c5.4-4.1,10.9-8.1,16.3-12.2
				c16.8,6.9,33,15,47.9,25.5c16.6,11.6,30.8,25.4,35.3,46c2.5,11.4,3.2,23.3,4.7,35c-4.4,4-8.8,8.1-13.2,12.1
				c-0.4,0-0.6,0.2-0.6,0.6l-0.3,0.2c-0.3,0.3-0.6,0.5-0.9,0.8c-0.7,0.6-1.5,1.2-2.2,1.8c-5.7,3.9-11.4,7.8-17,11.7
				c-10.6,5.8-21.3,11.6-31.9,17.4c-3.3,1.4-6.6,2.7-9.9,4.1c-7,2.4-14,4.8-21,7.2c-3.1,0.9-6.1,1.8-9.2,2.7
				c-13.1,2.1-26.1,4.8-39.3,6.2c-24.1,2.5-48.2,1.2-72-3.8c-1.1-0.2-2.3-0.2-3.5-0.4c-1.7-0.4-3.3-0.8-5-1.2c-3.7-1-7.4-1.9-11-2.9
				c-1.7-0.6-3.4-1.2-5.1-1.8c-3.3-1-6.6-2.1-10-3.1c-1.3-0.6-2.7-1.2-4-1.7c-3-1.1-5.9-2.2-8.9-3.3c-1.7-0.7-3.3-1.5-5-2.2
				c-3.4-1.6-6.7-3.2-10.1-4.8c-1-0.6-2.1-1.2-3.1-1.7c-3.3-1.8-6.6-3.5-9.9-5.3c-0.7-0.4-1.4-0.9-2.2-1.3c-3-1.9-6-3.7-9-5.6
				c-1.6-1.1-3.2-2.2-4.8-3.2c-2.3-1.6-4.6-3.3-6.9-4.9c-1.4-1-2.8-2-4.1-3.1c-2.4-1.9-4.8-3.9-7.2-5.8c-1.3-1.1-2.6-2.1-3.8-3.2
				C94.8,445.7,92.6,443.5,90.4,441.3z"/>
			<path class="st4" d="M431.8,438.4c-1.5,1.6-4.2,0.7-4.5-1.5c-1.1-9.9-1.9-19.8-4-29.5c-4.5-20.6-18.7-34.3-35.3-46
				c-14.9-10.5-31.1-18.6-47.9-25.5c-0.7-0.3-1.4-0.6-2.2-0.9c-2.4-0.9-4.7-1.9-7-2.8c-0.1,0-0.1,0-0.2-0.1
				c-1.9-0.6-3.9-1.3-5.8-1.9c-0.6-0.2-1.2-0.6-1.5-1.2c-4.1-7.5-8.5-14.9-12.4-22.6c-0.7-1.4-0.2-4.4,0.9-5.6
				c8.8-9.9,15-21.2,19-33.6c1.5-4.7,3-8.9,8.2-10.6c1.5-0.5,2.7-2.4,3.7-3.9c5.7-8.7,7.6-18.5,6.5-28.6c-0.5-4.9-1.2-10.4-6.6-12.5
				c-1.1-0.4-1.8-1.6-1.7-2.8c0.5-3.4,1.1-6.7,1.2-10.1c0.1-12.4,0.4-24.8-0.3-37.1c-0.6-10.3-4-19.9-8.4-29.1
				c-1-2.2,1.3-4.6,3.4-3.5c0.1,0,0.2,0.1,0.2,0.1c0.4,0.3,0.9,0.4,1.5,0.4c69.3-3.5,89.7,9.4,113.1,33.4
				c30.2,31,46.7,50.8,53.1,93.1l0.2,0.6c1.2,2.9-1.4,37.9-0.3,42.2c0.1,0.4,0.1,0.7,0,1.1c-1.5,7.8-3.1,15.3-4.5,23.2
				c0,0.1,0,0.1,0,0.2c-0.7,2.5-1.4,5.1-2,7.7c0,0.1,0,0.1-0.1,0.2c-2.6,7.4-5.2,14.6-7.8,22c-1.2,2.9-2.3,5.8-3.4,8.7
				c0,0.1-0.1,0.2-0.1,0.3c-6.1,10.9-12,21.9-18.1,32.8c0,0.1-0.1,0.2-0.1,0.2c-3.8,5.5-7.8,11.1-11.6,16.6
				c-0.1,0.1-0.2,0.2-0.2,0.3C448.3,420.9,440.1,429.7,431.8,438.4z"/>
			<path class="st0" d="M340.9,211.1c7.3,1.4,8,7.7,8.6,13.1c1.1,10.1-0.8,19.9-6.5,28.6c-1,1.5-2.2,3.4-3.7,3.9
				c-5.3,1.8-6.7,5.9-8.2,10.6c-4.1,12.4-10.3,23.7-19,33.6c-1.1,1.2-1.6,4.2-0.9,5.6c4,8,8.5,15.7,12.9,23.5
				c-1.1,1.4-2,3.1-3.5,4.1c-5.1,3.5-10.4,6.7-15.6,10.1c-3,1.3-6,2.7-9.1,4c-7.3,2.5-14.7,5-22,7.4c-0.3,0.2-0.5,0.3-0.8,0.5
				l-0.2,0.1c-2.6,0.6-5.3,1.3-7.9,1.9c-5.7,1.1-11.3,2.2-17,3.4c-3.3,0.5-6.7,1.1-10,1.6c-4.3,0.4-8.7,0.8-13,1.2
				c-1.7,0-3.4,0-5.1,0c-4.7,0-9.3,0-14,0c-1.7-0.3-3.3-0.6-5-1c-2.7-1.7-5.4-3.4-8.1-5.1c2-2.6,4-5.2,6.1-7.9
				c10.9-9.9,12.6-22.6,13.6-36.5c0.8-11.5-5.9-18.3-10.6-26.8c-2.7-4.8-4.9-9.8-7.4-14.7c-2.7-5.5-3.6-11.4-10.4-15.2
				c-7.5-4.2-9.1-13.6-9.9-21.9c-0.5-5,0-10.3,0.9-15.3c0.7-3.9,3.3-6.9,8-6.9c1,4.1,2,8.2,2.9,12.2c0.6,0,1.1,0,1.7-0.1
				c2.2-23,4.5-45.9,6.5-68.9c0.8-9.6,3.3-18.3,11-24.8c9.3-7.9,18.4-7.2,26.7,1.9c2.7,2.9,5.7,5.7,9,7.8c6.9,4.5,14.1,4.2,21.2,0.1
				c1.9-1.1,3.6-2.4,5.4-3.6c9.9-6.6,20.6-9.5,32.6-7.7c15.2,2.3,23.1,11,24.2,26.2c0.8,10.9,2,21.9,4,32.6
				c2.2,11.9,5.6,23.7,8.5,35.5c0.4-0.1,0.7-0.1,1.1-0.2C338.8,219.8,339.8,215.4,340.9,211.1z"/>
			<linearGradient id="SVGID_1_" gradientUnits="userSpaceOnUse" x1="457.2309" y1="87.6753" x2="269.489" y2="165.7398">
				<stop  offset="0.3101" style="stop-color:#2E2E2E"/>
				<stop  offset="1" style="stop-color:#898989"/>
			</linearGradient>
			<path class="st5" d="M340.9,211.1c-1.1,4.3-2.1,8.7-3.2,13c-0.4,0.1-0.7,0.1-1.1,0.2c-2.9-11.8-6.2-23.5-8.5-35.5
				c-2-10.8-3.2-21.7-4-32.6C323,141,315,132.3,299.9,130c-12-1.8-22.7,1.1-32.6,7.7c-1.8,1.2-3.5,2.5-5.4,3.6
				c-7.1,4.1-14.3,4.3-21.2-0.1c-3.3-2.1-6.4-4.9-9-7.8c-8.2-9.1-17.3-9.8-26.7-1.9c-7.7,6.5-10.1,15.2-11,24.8
				c-2,23-4.3,45.9-6.5,68.9c-0.6,0-1.1,0-1.7,0.1c-1-4.1-2-8.2-2.9-12.2c-0.7-13.6-2.4-27.2-1.8-40.8c0.5-12,2.6-24.1,5.8-35.7
				c3.7-13.2,13.6-22.7,24.4-30.7c25.5-18.9,53-18.7,81.3-7.3c12.1,4.9,23.4,11.2,32.2,21.2c2.1,2.4,4,4.9,5.9,7.3
				c5.7,10.9,10.6,22.2,11.2,34.7c0.7,12.3,0.4,24.7,0.3,37.1C342.3,202.9,341.4,207,340.9,211.1z"/>
		</g>
	</g>
</g>
<g id="Layer_2">
</g>
</svg>
