<?xml version="1.0" encoding="utf-8"?>
<!-- Generator: Adobe Illustrator 22.0.1, SVG Export Plug-In . SVG Version: 6.00 Build 0)  -->
<svg version="1.1" id="Layer_1" xmlns="http://www.w3.org/2000/svg" xmlns:xlink="http://www.w3.org/1999/xlink" x="0px" y="0px"
	 viewBox="0 0 520 520" style="enable-background:new 0 0 520 520;" xml:space="preserve">
<style type="text/css">
	.st0{fill:#FFFFFF;}
</style>
<path class="st0" d="M308.5,332.9l-121.4-25.4c-0.5,1-1.1,1.9-1.7,2.9l110.5,161.2l6.7-6.7L321.4,348
	C315,345.3,310.2,339.6,308.5,332.9L308.5,332.9z M264.2,174.1c-4.5,7-12.4,11.6-21.3,11.6c-1.4,0-2.7-0.1-4-0.3L183.5,272
	l147.9-63.7c0-0.6-0.2-1.2-0.2-1.8c0-1.2,0.2-2.5,0.4-3.6L264.2,174.1L264.2,174.1z M268.3,158.4l71.7,30.6c2.3-1.8,4.9-3.1,7.7-3.9
	l11.8-73.2L314.5,67L264,146C266.5,149.7,267.9,154,268.3,158.4L268.3,158.4z M418.4,170.9l-45-45l-9.8,60.7c2.5,1.2,4.7,2.9,6.6,5
	L418.4,170.9z M310.7,316.9c3.6-6.5,10.2-10.7,17.6-11.3l12.9-80.3c-1-0.7-1.9-1.5-2.8-2.3l-148.8,64c0.4,1.6,0.6,3.1,0.8,4.8
	L310.7,316.9z M430.7,183.2l-52,22.4l128.4,54.9l0.5-0.5L430.7,183.2L430.7,183.2z M337.7,348.2l-15.6,97.2l90.8-90.8L347.5,341
	C344.9,344.3,341.6,346.8,337.7,348.2z M161.2,323.2c-3.3,0-6.4-0.6-9.4-1.6l-30.2,47.2L110,357.2l28.6-44.7c-0.7-0.9-1.4-1.8-2-2.7
	l-51.8,22.3l-12.3-12.3l56.7-24.4L26.8,274l-14-14l4.4-4.4l118.1,24.7c1.4-2.6,3.1-4.9,5.2-7l-57.3-83.6L94.7,178l59.9,87.4
	c2.2-0.5,4.4-0.8,6.6-0.8c2.5,0,5,0.4,7.3,1l56-87.7c-4.6-4.7-7.1-11.1-7.1-17.6c0-2,0.3-4,0.7-5.8l-69.9-29.9l12.3-12.3l66.2,28.3
	c6.8-5.6,16.1-7.3,24.5-4.4l51.7-80.9L260,12.5L12.5,260L260,507.5l24.4-24.4L173,320.7C169.3,322.4,165.2,323.2,161.2,323.2
	L161.2,323.2z M356.9,228.7l-13.1,81.7c4.6,3.7,7.6,9.2,8.1,15.1l74.6,15.6l68.3-68.3L371.5,220C368,224.7,362.7,227.8,356.9,228.7
	L356.9,228.7z"/>
</svg>
