<?xml version="1.0" encoding="utf-8"?>
<!-- Generator: Adobe Illustrator 22.0.1, SVG Export Plug-In . SVG Version: 6.00 Build 0)  -->
<svg version="1.1" id="Layer_1" xmlns="http://www.w3.org/2000/svg" xmlns:xlink="http://www.w3.org/1999/xlink" x="0px" y="0px"
	 viewBox="0 0 256 230" style="enable-background:new 0 0 256 230;" xml:space="preserve">
<style type="text/css">
	.st0{fill:#FFFFFF;}
</style>
<g id="p66uXC.tif">
	<g>
		<path class="st0" d="M74.8,225.1c-6-0.6-11-3.1-14.8-7.9c-3.4-4.3-5.3-9.3-6.5-14.5c-0.9-3.8-1.2-7.7-1.4-11.7
			c-0.2-3.3,0-6.7,0.1-10c0.1-2,0.4-3.9,0.6-5.9c0.6-5.7,1.8-11.3,3.1-16.9c0.1-0.3,0.1-0.7,0.2-1.1c-0.4-0.1-0.7-0.3-1-0.4
			c-8.2-2.4-16.1-5.5-23.6-9.5c-6.4-3.4-12.3-7.4-17.5-12.5c-2.8-2.7-5.2-5.7-7-9.2c-2-3.7-3.1-7.7-2.9-12c0.2-3.4,1.2-6.6,2.9-9.6
			c2.4-4.4,5.7-8,9.4-11.2c6.2-5.3,13.3-9.2,20.7-12.5c6-2.7,12.1-4.8,18.4-6.6c0.2-0.1,0.5-0.2,0.8-0.3c-0.2-0.9-0.4-1.7-0.6-2.5
			c-1.2-5.4-2.2-10.7-2.9-16.2C52,49,51.9,43.1,52.2,37.2c0.3-6.2,1.4-12.3,4-18.1c2-4.5,4.9-8.4,9.2-11c2.5-1.5,5.1-2.4,8-2.8
			C78.8,4.6,84.1,5.4,89.2,7c6.4,2,12.3,5,18,8.6c6.3,3.9,12.1,8.5,17.5,13.4c1.1,1,2.2,2,3.4,3.1c0.7-0.6,1.3-1.2,2-1.8
			c5.8-5.5,11.9-10.5,18.6-14.8c5.8-3.8,12-7,18.6-9c3.1-0.9,6.2-1.6,9.5-1.7c1,0,2.1,0,3.1,0c2.6,0.1,5.2,0.7,7.6,1.7
			c3.7,1.5,6.6,4.1,8.9,7.3c2.9,4,4.6,8.6,5.7,13.3c1.4,5.9,1.7,12,1.6,18.1c-0.1,5.6-0.6,11.2-1.6,16.7c-0.7,3.8-1.5,7.6-2.2,11.3
			c0,0.1,0,0.2,0,0.5c0.4,0.1,0.8,0.3,1.2,0.4c5.3,1.6,10.5,3.4,15.6,5.5c7.3,3.1,14.3,6.8,20.6,11.7c3.9,3,7.4,6.4,10.1,10.5
			c2.1,3.1,3.6,6.5,4.2,10.3c0.5,3.5,0.1,6.9-1.2,10.1c-1.6,4.2-4.2,7.8-7.3,11.1c-3.8,4-8.2,7.3-12.9,10.2c-8.5,5.2-17.6,9-27.1,12
			c-0.7,0.2-1.5,0.5-2.3,0.7c-0.5,0.1-0.6,0.4-0.5,0.8c0.6,2.4,1.2,4.8,1.7,7.2c0.9,4.8,1.7,9.7,1.9,14.6c0.1,4,0.3,7.9,0.1,11.9
			c-0.2,5.7-1.1,11.4-3.1,16.8c-1.4,4-3.4,7.7-6.3,10.9c-3.1,3.3-6.8,5.4-11.1,6.3c-2.4,0.5-4.8,0.6-7.3,0.4c-0.7-0.1-1.4-0.1-2-0.2
			c-3.9-0.4-7.6-1.5-11.2-2.9c-7.6-2.9-14.4-7.2-20.8-12c-4.4-3.2-8.5-6.8-12.4-10.5c-0.4-0.4-0.9-0.8-1.4-1.3
			c-0.3,0.3-0.6,0.5-0.9,0.8c-7,6.6-14.5,12.5-22.8,17.4c-5.9,3.4-12.1,6.2-18.8,7.7c-1.7,0.4-3.5,0.7-5.3,0.8
			C78.7,225.1,76.8,225.1,74.8,225.1z M117,64.9c0.9-0.1,1.8-0.1,2.7-0.2c1.1,0,2.2-0.1,3.4-0.1c3.2,0,6.4,0,9.7,0
			c1.1,0,2.2,0,3.4,0.1c0.2,0.1,0.3,0.2,0.5,0.2c1.5,0,3,0,4.5,0c0.5,0,0.9,0,1.6,0c-4.7-6.2-9.4-12-14.6-17.6
			c-5.2,5.6-10,11.3-14.5,17.3c0,0.1,0,0.2,0,0.2c0.4,0,0.9,0,1.3,0C115.7,64.9,116.4,64.9,117,64.9z M136.8,155
			c1.1-0.1,2.3-0.1,3.4-0.2c0.5,0,1,0,1.6-0.1c1.1-0.1,2.3-0.1,3.4-0.2c0.4,0,0.7,0,1.1,0c1-0.1,2-0.1,2.9-0.2
			c1.1,0.2,1.8-0.3,2.3-1.3c0.9-1.5,1.9-3,2.8-4.4c6.8-10.6,12.9-21.5,18.5-32.7c0.3-0.6,0.4-1.1,0-1.8c-2-3.7-3.8-7.4-5.8-11
			c-4.8-8.8-9.9-17.3-15.5-25.6c-1.2-1.8-0.6-1.5-2.8-1.6c-0.9-0.1-1.8-0.1-2.7-0.2c-0.4,0-0.7,0-1.1,0c-1.1-0.1-2.3-0.1-3.4-0.2
			c-0.5,0-1,0-1.6,0c-1.6-0.1-3.1-0.1-4.7-0.2c-1.1,0-2.2-0.1-3.4-0.1c-0.2-0.1-0.4-0.2-0.6-0.2c-2.2,0-4.4,0-6.6,0
			c-0.2,0-0.4,0.1-0.6,0.2c-1,0-2.1,0-3.1,0.1c-1.2,0-2.4,0-3.7,0c-0.4,0-0.7,0.1-1.1,0.2c-0.5,0-1,0-1.5,0
			c-1.2,0.1-2.4,0.1-3.6,0.2c-1.4,0.1-2.8,0.2-4.1,0.2c-1,0-1.5,0.3-2.1,1.1c-8,11.9-15.1,24.2-21.4,37.1c-0.3,0.7-0.4,1.2,0,2
			c3.5,7,7.1,13.9,11.1,20.7c3.4,5.7,6.9,11.3,10.6,16.8c0.2,0.4,0.4,0.8,1,0.8c1,0.1,2,0.1,2.9,0.2c0.4,0,0.7,0,1.1,0
			c1.2,0.1,2.4,0.1,3.6,0.2c0.5,0,1,0,1.5,0c0.2,0.1,0.3,0.2,0.5,0.2c1.6,0,3.3,0,4.9,0c4.7,0,9.4,0,14.1,0
			C135.5,155,136.1,155,136.8,155z M117,165.4c-1,0-2,0-3,0c-0.3,0-0.5,0.2-0.2,0.5c4.5,6,9.4,11.8,14.5,17.3
			c3.4-3.3,13.9-16.3,14.3-17.8c-0.4,0-0.8,0-1.1,0c-1.3,0-2.6,0-3.9,0c-0.3,0-0.6,0.1-0.8,0.2c-1,0-2.1,0.1-3.1,0.1
			c-3.7,0-7.5,0-11.2,0c-1,0-2.1-0.1-3.1-0.1C118.5,165.5,117.8,165.4,117,165.4z M165.6,152.8c0.9-0.1,1.7-0.2,2.6-0.3
			c5.1-0.9,10.2-1.7,15.3-2.6c1.2-0.2,2.4-0.5,3.8-0.8c-2.4-7.4-5.1-14.6-8.3-21.7c-0.3,0.5-0.5,0.9-0.7,1.2
			c-3.5,6.6-7.2,13.1-11.1,19.5c-1,1.6-1.9,3.2-2.9,4.8C164.8,153.2,165.2,153,165.6,152.8z M177,15.4c-2,0.1-4,0.5-5.9,1.1
			c-6.8,2-12.9,5.4-18.7,9.3c-5.3,3.6-10.2,7.6-14.8,12c-0.7,0.6-1.2,1.3-1.9,2c1.2,1.3,2.3,2.6,3.4,3.9c3.4,4.1,6.8,8.2,10.1,12.3
			c2.4,3,4.6,6.2,6.9,9.3c0.3,0.4,0.6,0.7,1.2,0.7c4.6,0.5,9.2,1,13.8,1.6c4.5,0.7,8.9,1.5,13.4,2.4c1.7,0.3,3.4,0.7,5.2,1.1
			c0.1-0.3,0.2-0.6,0.3-0.9c0.8-4,1.6-8,2.2-12.1c0.5-3.3,0.9-6.7,1-10c0.3-5.5,0.2-10.9-0.8-16.3c-0.6-3.3-1.5-6.5-3-9.5
			c-2.1-4-5.1-6.6-9.8-6.9C178.7,15.1,177.9,15.1,177,15.4z M78.6,15.6c-0.8-0.3-1.7-0.3-2.5,0c-2.9,0.2-5.4,1.2-7.4,3.3
			c-1.7,1.8-2.8,4-3.6,6.3c-1.6,4.3-2.2,8.8-2.4,13.4c-0.2,4.7-0.1,9.3,0.4,14c0.2,2,0.4,4,0.7,6c0.5,2.9,1.2,5.8,1.8,8.8
			c0.3,1.2,0.6,2.4,0.9,3.6c1.5-0.3,2.9-0.7,4.4-0.9c4.9-0.9,9.8-1.8,14.7-2.5c3.6-0.6,7.2-0.9,10.8-1.4c0.5-0.1,1.1-0.1,1.6-0.2
			c1.1,0.1,1.8-0.4,2.5-1.3c5.7-8,11.7-15.6,18.3-22.8c0.6-0.7,1.3-1.4,1.9-2.2c-3.8-3.7-7.7-7-11.8-10.1
			C103.3,25.5,97.5,21.7,91,19C87.1,17.3,83,15.9,78.6,15.6z M175.2,214.6c0.6,0.1,1.2,0.1,1.8,0.2c0.5,0,1,0,1.5,0
			c4.1,0,7.3-1.5,9.7-4.9c1.9-2.8,3.1-5.9,3.9-9.1c0.8-3.1,1.3-6.2,1.4-9.4c0.1-3.5,0.2-7,0.1-10.5c-0.2-3.5-0.5-7-1.2-10.4
			c-0.4-1.9-0.6-3.8-0.9-5.7c-0.3-1.8-0.8-3.6-1.2-5.4c-0.4,0.1-0.6,0.1-0.9,0.1c-3.1,0.6-6.2,1.3-9.3,1.9c-4,0.7-8.1,1.3-12.2,1.9
			c-3.2,0.4-6.5,0.7-9.7,1.1c-0.5,0.1-1,0.1-1.6,0.2c-1.8,2.5-3.5,4.9-5.3,7.4c-4.3,5.8-8.8,11.4-13.6,16.8
			c-0.6,0.7-1.2,1.4-1.9,2.2c0.4,0.3,0.6,0.6,0.9,0.8c4.5,4.2,9.1,8.2,14.2,11.7c5.1,3.6,10.3,6.7,16.1,9
			C169.7,213.4,172.4,214.2,175.2,214.6z M94.1,164c-0.8-0.1-1.6-0.2-2.5-0.2c-1.6-0.2-3.3-0.3-4.9-0.5c-1.9-0.2-3.8-0.6-5.7-0.9
			c-3.7-0.6-7.4-1.3-11-2c-1.2-0.2-2.4-0.5-3.6-0.7c-0.1,0.2-0.1,0.4-0.1,0.5c-1.1,4.7-2.1,9.3-2.7,14.1c-0.7,5.1-1,10.3-0.9,15.4
			c0.1,3.2,0.4,6.4,1,9.6c0.7,3.4,1.7,6.7,3.5,9.7c2,3.2,4.8,5.2,8.6,5.6c0.4,0.1,0.8,0.2,1.3,0.2c1.1,0,2.2-0.1,3.2-0.2
			c0.5-0.1,1-0.1,1.5-0.2c4.9-0.8,9.4-2.6,13.8-4.8c8.5-4.3,16.1-10,23.1-16.5c0.8-0.7,1.4-1.5,2.2-2.3c-0.1-0.1-0.2-0.3-0.4-0.5
			c-1.1-1.3-2.2-2.5-3.4-3.8c-4.2-4.7-8.2-9.6-12-14.7c-1.6-2.2-3.3-4.4-4.9-6.6c-0.3-0.5-0.7-0.7-1.3-0.7c-1.1,0-2.2-0.2-3.2-0.3
			C95.2,164.1,94.7,164.1,94.1,164z M59.1,83.9c-0.3,0-0.5,0.1-0.8,0.1c-1.7,0.5-3.4,1-5,1.6c-7.6,2.5-14.9,5.5-21.7,9.6
			c-4.3,2.6-8.4,5.5-11.8,9.2c-1.5,1.7-2.8,3.5-3.8,5.5c-1.7,3.3-1.6,6.6,0,9.9c1.3,2.7,3,5,5.1,7.1c3.9,4,8.5,7.2,13.4,9.9
			c7,4,14.5,7,22.2,9.4c0.8,0.2,1.6,0.4,2.4,0.7c0.2-0.4,0.3-0.8,0.4-1.1c3.1-9.8,6.8-19.4,11.1-28.8c0.9-2.1,1-1.5,0-3.6
			c-3.5-7.6-6.6-15.4-9.2-23.4C60.4,88,59.8,86,59.1,83.9z M197.2,84c-0.1,0.3-0.3,0.6-0.4,0.9c-0.3,1-0.6,2.1-1,3.1
			c-3,8.8-6.4,17.4-10.3,25.8c-0.4,0.8-0.3,1.4,0,2.2c2.3,5.3,4.7,10.5,6.8,15.9c1.8,4.4,3.2,8.8,4.8,13.3c0.1,0.4,0.3,0.7,0.4,1.1
			c0.3-0.1,0.5-0.1,0.7-0.2c5.6-1.7,11.1-3.7,16.5-6.2c6.8-3.1,13.3-6.8,18.9-11.9c2.7-2.4,5-5.1,6.6-8.4c1.4-3,1.4-6.1,0.1-9.1
			c-1.4-3.1-3.5-5.6-5.9-7.8c-4.5-4.2-9.6-7.3-15-10.1c-5.4-2.8-11.1-5-16.9-6.9C200.7,85,198.9,84.6,197.2,84z M92,153
			c-5.3-8.3-10.2-16.6-14.6-25.2c-0.2,0.1-0.3,0.2-0.3,0.2c-3,6.9-5.5,14-7.8,21.2C70.5,150.1,86.3,152.7,92,153z M178.9,102.7
			c3-7.1,5.7-14.1,7.9-21.2c-2.4-1-20.7-4.2-22.4-3.9C169.5,85.7,174.3,94,178.9,102.7z M91.6,77.5c-7.5,0.8-14.9,2-22.1,3.7
			c0.8,3.8,6.9,20.1,7.9,21.2C81.8,93.9,86.6,85.7,91.6,77.5z"/>
		<path class="st0" d="M74.8,225.1c2,0,3.9,0,5.9,0c-0.2,0.1-0.3,0.2-0.5,0.2c-1.6,0-3.2,0-4.7,0C75.2,225.3,75,225.2,74.8,225.1z"
			/>
		<path class="st0" d="M180,4.9c-1,0-2.1,0-3.1,0C177.9,4.6,178.9,4.6,180,4.9z"/>
		<path class="st0" d="M174.4,225.1c0.7,0.1,1.4,0.1,2,0.2C175.7,225.2,175,225.2,174.4,225.1z"/>
		<path class="st0" d="M133.7,165.6c-0.3,0.1-0.6,0.2-0.8,0.2c-3.2,0-6.4,0-9.5,0c-0.3,0-0.6-0.1-0.8-0.2
			C126.2,165.6,129.9,165.6,133.7,165.6z"/>
		<path class="st0" d="M123.1,64.6c0.2-0.1,0.5-0.2,0.7-0.2c2.7,0,5.5,0,8.2,0c0.2,0,0.5,0.1,0.7,0.2
			C129.6,64.6,126.3,64.6,123.1,64.6z"/>
		<path class="st0" d="M131.9,75.2c-2.6,0-5.2,0-7.9,0c0.2-0.1,0.4-0.2,0.6-0.2c2.2,0,4.4,0,6.6,0C131.5,75,131.7,75.1,131.9,75.2z"
			/>
		<path class="st0" d="M115.3,154.8c1.6,0,3.3,0,4.9,0c0.2,0,0.3,0.1,0.5,0.2c-1.6,0-3.3,0-4.9,0C115.6,155,115.4,154.9,115.3,154.8
			z"/>
		<path class="st0" d="M136.1,64.7c1.4,0,2.9,0,4.3,0c0.2,0,0.4,0.1,0.6,0.2c-1.5,0-3,0-4.5,0C136.5,64.9,136.3,64.7,136.1,64.7z"/>
		<path class="st0" d="M120.9,75.2c-0.2,0.1-0.4,0.2-0.6,0.2c-1.4,0-2.7,0-4.1,0c0.4-0.1,0.7-0.2,1.1-0.2
			C118.4,75.2,119.7,75.2,120.9,75.2z"/>
		<path class="st0" d="M140,75.5c-1.3,0-2.7,0-4,0c-0.2,0-0.5-0.1-0.7-0.2C136.8,75.3,138.4,75.4,140,75.5z"/>
		<path class="st0" d="M141.6,165.3c-0.4,0.1-0.9,0.2-1.3,0.2c-1.1,0-2.3,0-3.4,0c0.3-0.1,0.6-0.2,0.8-0.2
			C139,165.3,140.3,165.3,141.6,165.3z"/>
		<path class="st0" d="M75.7,214.6c1.5,0,3,0,4.5,0c-1.1,0.1-2.2,0.2-3.2,0.2C76.6,214.8,76.1,214.6,75.7,214.6z"/>
		<path class="st0" d="M110.1,154.6c1.2,0.1,2.4,0.1,3.6,0.2C112.5,154.7,111.3,154.6,110.1,154.6z"/>
		<path class="st0" d="M117.1,165.5c-0.8,0-1.5,0-2.3,0c-0.3,0-0.6,0.2-0.9,0.2c-0.3-0.3-0.2-0.5,0.2-0.5c1,0,2,0,3,0
			C117,165.4,117.1,165.5,117.1,165.5z"/>
		<path class="st0" d="M114.6,75.5c-1.2,0.1-2.4,0.1-3.6,0.2C112.2,75.6,113.4,75.5,114.6,75.5z"/>
		<path class="st0" d="M136.9,154.8c1.1,0,2.2,0,3.3,0c-1.1,0.1-2.3,0.1-3.4,0.2C136.8,154.9,136.8,154.9,136.9,154.8z"/>
		<path class="st0" d="M144.9,75.7c-1.1-0.1-2.3-0.1-3.4-0.2C142.7,75.5,143.8,75.6,144.9,75.7z"/>
		<path class="st0" d="M141.8,154.7c1.1-0.1,2.3-0.1,3.4-0.2C144,154.6,142.9,154.7,141.8,154.7z"/>
		<path class="st0" d="M146.3,154.5c1-0.1,2-0.1,2.9-0.2C148.2,154.4,147.2,154.5,146.3,154.5z"/>
		<path class="st0" d="M106,154.3c1,0.1,2,0.1,2.9,0.2C108,154.5,107,154.4,106,154.3z"/>
		<path class="st0" d="M117.1,64.7c0.9,0,1.8,0,2.7,0c-0.9,0.1-1.8,0.1-2.7,0.2C117.1,64.8,117.1,64.8,117.1,64.7z"/>
		<path class="st0" d="M148.8,75.9c-0.9-0.1-1.8-0.1-2.7-0.2C146.9,75.8,147.8,75.8,148.8,75.9z"/>
		<path class="st0" d="M179.5,15.4c-0.8,0-1.7,0-2.5,0C177.9,15.1,178.7,15.1,179.5,15.4z"/>
		<path class="st0" d="M78.6,15.6c-0.8,0-1.7,0-2.5,0C77,15.4,77.8,15.4,78.6,15.6z"/>
		<path class="st0" d="M117.1,165.5c0-0.1,0-0.1,0-0.2c0.8,0.1,1.5,0.1,2.3,0.2C118.6,165.5,117.8,165.5,117.1,165.5z"/>
		<path class="st0" d="M136.9,154.8c0,0.1,0,0.1-0.1,0.2c-0.7,0-1.3,0-2,0C135.5,154.9,136.2,154.9,136.9,154.8z"/>
		<path class="st0" d="M117.1,64.7c0,0.1,0,0.1,0,0.2c-0.7,0-1.3,0-2,0C115.7,64.8,116.4,64.7,117.1,64.7z"/>
		<path class="st0" d="M175.2,214.6c0.6,0.1,1.2,0.1,1.8,0.2C176.5,214.7,175.9,214.6,175.2,214.6z"/>
		<path class="st0" d="M95.7,164.2c-0.5-0.1-1.1-0.1-1.6-0.2C94.7,164.1,95.2,164.1,95.7,164.2z"/>
		<path class="st0" d="M158.2,164.2c-0.5,0.1-1,0.1-1.6,0.2C157.1,164.4,157.7,164.3,158.2,164.2z"/>
		<path class="st0" d="M96.4,66.2c0.5-0.1,1.1-0.1,1.6-0.2C97.4,66.1,96.9,66.2,96.4,66.2z"/>
		<path class="st0" d="M164.4,152.8c0.4,0,0.8,0,1.2,0C165.2,153,164.8,153.2,164.4,152.8z"/>
		<path class="st0" d="M113.7,64.6c0,0.1,0,0.2,0,0.2C113.7,64.8,113.7,64.7,113.7,64.6z"/>
		<path class="st0" d="M125.1,136.8c-4.3-0.5-8.1-2.2-11.3-5c-4.3-3.6-6.9-8.2-7.7-13.8c-0.9-6.9,0.9-13,5.6-18.1
			c3.4-3.8,7.7-6,12.8-6.9c0.2,0,0.4,0,0.7,0c0.5-0.1,1.1-0.1,1.6-0.2c0.8,0,1.6,0,2.5,0c0.6,0.1,1.2,0.1,1.8,0.2
			c3.1,0.3,5.9,1.4,8.5,3c5.5,3.4,9.1,8.3,10.2,14.7c1.2,6.6-0.2,12.7-4.5,18c-3.5,4.4-8.2,7-13.7,8c-0.2,0-0.4,0-0.6,0
			c-0.5,0.1-1,0.1-1.6,0.2c-0.9,0-1.8,0-2.7,0C126.2,136.9,125.7,136.9,125.1,136.8z"/>
		<path class="st0" d="M131,93c-0.6-0.1-1.2-0.1-1.8-0.2C129.8,92.9,130.4,92.9,131,93z"/>
		<path class="st0" d="M129.4,137c0.5-0.1,1-0.1,1.6-0.2C130.5,136.9,129.9,136.9,129.4,137z"/>
		<path class="st0" d="M125.1,136.8c0.5,0.1,1,0.1,1.6,0.2C126.2,136.9,125.7,136.9,125.1,136.8z"/>
		<path class="st0" d="M126.7,92.8c-0.5,0.1-1.1,0.1-1.6,0.2C125.7,92.9,126.2,92.9,126.7,92.8z"/>
	</g>
</g>
</svg>
