<?xml version="1.0" encoding="utf-8"?>
<!-- Generator: Adobe Illustrator 22.0.1, SVG Export Plug-In . SVG Version: 6.00 Build 0)  -->
<svg version="1.1" id="Layer_1" xmlns="http://www.w3.org/2000/svg" xmlns:xlink="http://www.w3.org/1999/xlink" x="0px" y="0px"
	 viewBox="0 0 520 520" style="enable-background:new 0 0 520 520;" xml:space="preserve">
<style type="text/css">
	.st0{fill:#FAFAFA;}
	.st1{fill:#FFFFFF;}
</style>
<g>
	<path class="st0" d="M132,178.7c41.8-23.1,81.5-45.2,121.4-66.7c3.4-1.9,9.8-1.5,13.3,0.5c25.6,14.1,50.7,29.2,76.2,43.3
		c13.8,7.6,28.3,14.1,44.3,22.1c-5.2,3.3-8.4,5.6-11.9,7.6c-35.8,20.8-71.6,41.6-107.7,62c-3.6,2.1-9.9,3.4-13.1,1.6
		C214.2,226.4,174.2,203.1,132,178.7z"/>
	<path class="st0" d="M395.4,201.3c0,43.2,0,86.5,0,129.7c-0.7,1-1.3,2-2,3c-38.3,21.2-76.6,42.4-114.9,63.7
		c-1.6-4.7-4.6-9.5-4.6-14.2c-0.4-39.1-0.2-78.2-0.2-117.3c38.3-22.2,76.5-44.5,114.8-66.7C390.8,200.1,393.1,200.7,395.4,201.3z"/>
	<path class="st0" d="M132.6,201.1c37.9,21.7,75.7,43.5,113.6,65.2c0.1,39.7,0,79.5,0.3,119.2c0,6.1-0.7,10.8-8.2,10.8l0.4-0.5
		c0,0-0.4,0.5-0.4,0.5c-1.6-0.9-3.3-1.8-4.9-2.8c0,0,0.1,0.1,0.1,0.1c-1.7-0.9-3.3-1.8-5-2.7c0,0,0.1,0.1,0.1,0.1
		c-1.7-0.9-3.3-1.8-5-2.7c0,0,0.1,0,0.1,0c-1.6-0.9-3.3-1.7-4.9-2.6c-28.3-15.7-56.5-31.4-84.8-47.1c-1.7-0.9-3.3-1.8-5-2.7
		c0,0,0,0,0,0c-0.8-3.2-2.3-6.3-2.4-9.5c-0.2-38.8-0.2-77.7,0.1-116.5C126.9,207,130.6,204.1,132.6,201.1z"/>
	<path class="st1" d="M489.6,140.6c0,82.4,0,162,0,243.7c-4.8-2.2-8.5-3.5-11.9-5.4c-18.3-10.5-36.4-21.5-54.9-31.7
		c-6.5-3.6-9.6-7.8-9.6-15.6c0.3-46.1,0.1-92.1,0.3-138.2c0-3.7,1.2-9.3,3.8-10.8C440.6,168.5,464.3,155.1,489.6,140.6z"/>
	<path class="st1" d="M250.9,3.8c0,29.3,0.2,56.1-0.3,82.9c-0.1,3.1-3.9,7.1-7,8.9c-41.2,23.1-82.5,46-123.9,68.6
		c-3,1.7-8.4,2-11.3,0.4c-22.4-12.4-44.5-25.4-69.9-40.1C110.1,83.7,179.2,44.5,250.9,3.8z"/>
	<path class="st1" d="M251,516.2c-69.8-39.6-137.1-77.8-207-117.5c21-12.4,39.7-23.4,58.4-34.4c3.6-2.1,7.5-3.7,10.7-6.2
		c5.7-4.5,10.6-3.8,16.8-0.3c35.7,20.2,71.5,40.3,107.7,59.5c10.4,5.5,14,11.8,13.6,23.2C250.4,464.9,251,489.3,251,516.2z"/>
	<path class="st1" d="M480.7,124.5c-25.4,14.7-47.9,28-70.7,40.5c-2.8,1.5-8.2,0.5-11.4-1.2c-40.8-22.2-81.5-44.5-121.9-67.4
		c-3.8-2.1-7.5-8.1-7.6-12.4c-0.7-25.7-0.4-51.4-0.4-79.9C339.5,44.3,408.7,83.6,480.7,124.5z"/>
	<path class="st1" d="M475.4,398.6c-69.8,39.6-137.3,77.8-206.7,117.2c0-30.4-0.2-58.4,0.3-86.5c0-2.8,3.3-6.5,6.1-8.1
		c38.3-21.5,76.7-42.8,115.4-63.6c3.7-2,10.4-1.8,14.1,0.2C427.6,370.6,450.3,384.1,475.4,398.6z"/>
	<path class="st1" d="M30.4,141c24,14,46.5,27,68.7,40.5c2.8,1.7,5.1,6.6,5.1,10c0.3,47.7,0.3,95.4,0.1,143.1c0,3.2-1.5,7.9-3.9,9.4
		c-22.5,13.6-45.4,26.7-70,41C30.4,302.6,30.4,222.9,30.4,141z"/>
</g>
</svg>
