<svg xmlns="http://www.w3.org/2000/svg" width="520" height="520"><path d="M280,286L231,283L271,328Z" fill="#2c2c37" stroke="#2c2c37" stroke-width="1.51"/><path d="M231,283L224,320L271,328Z" fill="#2b2b36" stroke="#2b2b36" stroke-width="1.51"/><path d="M176,290L183,323L224,320Z" fill="#2d2d37" stroke="#2d2d37" stroke-width="1.51"/><path d="M242,389L290,382L271,328Z" fill="#262630" stroke="#262630" stroke-width="1.51"/><path d="M288,230L223,232L231,283Z" fill="#30303b" stroke="#30303b" stroke-width="1.51"/><path d="M231,283L176,290L224,320Z" fill="#2d2d38" stroke="#2d2d38" stroke-width="1.51"/><path d="M280,286L288,230L231,283Z" fill="#2e2e3a" stroke="#2e2e3a" stroke-width="1.51"/><path d="M337,326L331,284L280,286Z" fill="#272732" stroke="#272732" stroke-width="1.51"/><path d="M177,239L176,290L231,283Z" fill="#302f3b" stroke="#302f3b" stroke-width="1.51"/><path d="M331,284L288,230L280,286Z" fill="#2b2b36" stroke="#2b2b36" stroke-width="1.51"/><path d="M271,328L337,326L280,286Z" fill="#282832" stroke="#282832" stroke-width="1.51"/><path d="M242,389L271,328L224,320Z" fill="#292933" stroke="#292933" stroke-width="1.51"/><path d="M271,328L290,382L337,326Z" fill="#25252f" stroke="#25252f" stroke-width="1.51"/><path d="M193,379L242,389L224,320Z" fill="#282832" stroke="#282832" stroke-width="1.51"/><path d="M183,323L193,379L224,320Z" fill="#2a2a34" stroke="#2a2a34" stroke-width="1.51"/><path d="M151,343L193,379L183,323Z" fill="#2a2a34" stroke="#2a2a34" stroke-width="1.51"/><path d="M223,232L177,239L231,283Z" fill="#30303c" stroke="#30303c" stroke-width="1.51"/><path d="M331,284L334,239L288,230Z" fill="#2a2a35" stroke="#2a2a35" stroke-width="1.51"/><path d="M384,277L334,239L331,284Z" fill="#272732" stroke="#272732" stroke-width="1.51"/><path d="M290,382L325,380L337,326Z" fill="#22222c" stroke="#22222c" stroke-width="1.51"/><path d="M287,417L325,380L290,382Z" fill="#22222b" stroke="#22222b" stroke-width="1.51"/><path d="M176,290L151,343L183,323Z" fill="#2d2d37" stroke="#2d2d37" stroke-width="1.51"/><path d="M177,239L150,280L176,290Z" fill="#30303b" stroke="#30303b" stroke-width="1.51"/><path d="M288,230L230,198L223,232Z" fill="#30303b" stroke="#30303b" stroke-width="1.51"/><path d="M223,232L192,194L177,239Z" fill="#31313c" stroke="#31313c" stroke-width="1.51"/><path d="M282,194L230,198L288,230Z" fill="#30303b" stroke="#30303b" stroke-width="1.51"/><path d="M150,280L151,343L176,290Z" fill="#2e2e38" stroke="#2e2e38" stroke-width="1.51"/><path d="M329,184L282,194L288,230Z" fill="#2d2d38" stroke="#2d2d38" stroke-width="1.51"/><path d="M242,389L287,417L290,382Z" fill="#24242e" stroke="#24242e" stroke-width="1.51"/><path d="M232,423L287,417L242,389Z" fill="#262630" stroke="#262630" stroke-width="1.51"/><path d="M193,379L232,423L242,389Z" fill="#262630" stroke="#262630" stroke-width="1.51"/><path d="M197,427L232,423L193,379Z" fill="#272731" stroke="#272731" stroke-width="1.51"/><path d="M337,326L384,277L331,284Z" fill="#25252f" stroke="#25252f" stroke-width="1.51"/><path d="M325,380L372,343L337,326Z" fill="#21212a" stroke="#21212a" stroke-width="1.51"/><path d="M386,390L372,343L325,380Z" fill="#1f1e27" stroke="#1f1e27" stroke-width="1.51"/><path d="M230,198L192,194L223,232Z" fill="#31313c" stroke="#31313c" stroke-width="1.51"/><path d="M177,239L131,235L150,280Z" fill="#32323d" stroke="#32323d" stroke-width="1.51"/><path d="M197,152L192,194L230,198Z" fill="#33323d" stroke="#33323d" stroke-width="1.51"/><path d="M151,343L153,381L193,379Z" fill="#292932" stroke="#292932" stroke-width="1.51"/><path d="M372,343L384,277L337,326Z" fill="#22222c" stroke="#22222c" stroke-width="1.51"/><path d="M334,239L329,184L288,230Z" fill="#2b2b36" stroke="#2b2b36" stroke-width="1.51"/><path d="M153,381L197,427L193,379Z" fill="#272730" stroke="#272730" stroke-width="1.51"/><path d="M340,463L338,419L287,417Z" fill="#22222c" stroke="#22222c" stroke-width="1.51"/><path d="M380,228L329,184L334,239Z" fill="#292933" stroke="#292933" stroke-width="1.51"/><path d="M282,194L273,147L230,198Z" fill="#31313c" stroke="#31313c" stroke-width="1.51"/><path d="M150,181L131,235L177,239Z" fill="#33333d" stroke="#33333d" stroke-width="1.51"/><path d="M150,280L98,280L151,343Z" fill="#2f2f39" stroke="#2f2f39" stroke-width="1.51"/><path d="M151,343L102,386L153,381Z" fill="#2a2a33" stroke="#2a2a33" stroke-width="1.51"/><path d="M287,417L338,419L325,380Z" fill="#21212a" stroke="#21212a" stroke-width="1.51"/><path d="M284,469L287,417L232,423Z" fill="#272732" stroke="#272732" stroke-width="1.51"/><path d="M384,277L380,228L334,239Z" fill="#272731" stroke="#272731" stroke-width="1.51"/><path d="M329,184L273,147L282,194Z" fill="#2f2f39" stroke="#2f2f39" stroke-width="1.51"/><path d="M131,235L98,280L150,280Z" fill="#32323c" stroke="#32323c" stroke-width="1.51"/><path d="M431,324L425,289L384,277Z" fill="#23232d" stroke="#23232d" stroke-width="1.51"/><path d="M338,419L386,390L325,380Z" fill="#1e1e27" stroke="#1e1e27" stroke-width="1.51"/><path d="M192,194L150,181L177,239Z" fill="#33333e" stroke="#33333e" stroke-width="1.51"/><path d="M131,235L98,237L98,280Z" fill="#33323d" stroke="#33323d" stroke-width="1.51"/><path d="M197,152L150,181L192,194Z" fill="#33333d" stroke="#33333d" stroke-width="1.51"/><path d="M228,136L197,152L230,198Z" fill="#32323d" stroke="#32323d" stroke-width="1.51"/><path d="M98,280L92,338L151,343Z" fill="#2e2e37" stroke="#2e2e37" stroke-width="1.51"/><path d="M153,381L130,416L197,427Z" fill="#282832" stroke="#282832" stroke-width="1.51"/><path d="M102,386L130,416L153,381Z" fill="#282831" stroke="#282831" stroke-width="1.51"/><path d="M273,147L228,136L230,198Z" fill="#32323d" stroke="#32323d" stroke-width="1.51"/><path d="M225,485L284,469L232,423Z" fill="#292934" stroke="#292934" stroke-width="1.51"/><path d="M338,419L368,435L386,390Z" fill="#1e1e27" stroke="#1e1e27" stroke-width="1.51"/><path d="M199,466L232,423L197,427Z" fill="#292933" stroke="#292933" stroke-width="1.51"/><path d="M81,196L98,237L131,235Z" fill="#33333d" stroke="#33333d" stroke-width="1.51"/><path d="M98,280L48,278L92,338Z" fill="#2f2f3a" stroke="#2f2f3a" stroke-width="1.51"/><path d="M329,184L336,142L273,147Z" fill="#2e2d37" stroke="#2e2d37" stroke-width="1.51"/><path d="M380,228L385,194L329,184Z" fill="#282832" stroke="#282832" stroke-width="1.51"/><path d="M423,243L385,194L380,228Z" fill="#262630" stroke="#262630" stroke-width="1.51"/><path d="M423,243L380,228L384,277Z" fill="#26262f" stroke="#26262f" stroke-width="1.51"/><path d="M431,324L384,277L372,343Z" fill="#21212a" stroke="#21212a" stroke-width="1.51"/><path d="M148,485L199,466L197,427Z" fill="#2b2b35" stroke="#2b2b35" stroke-width="1.51"/><path d="M92,338L102,386L151,343Z" fill="#2b2b34" stroke="#2b2b34" stroke-width="1.51"/><path d="M340,463L368,435L338,419Z" fill="#21212a" stroke="#21212a" stroke-width="1.51"/><path d="M430,375L372,343L386,390Z" fill="#1d1d25" stroke="#1d1d25" stroke-width="1.51"/><path d="M430,375L431,324L372,343Z" fill="#1f1f28" stroke="#1f1f28" stroke-width="1.51"/><path d="M478,276L423,243L425,289Z" fill="#272732" stroke="#272732" stroke-width="1.51"/><path d="M425,289L423,243L384,277Z" fill="#25252f" stroke="#25252f" stroke-width="1.51"/><path d="M367,151L336,142L329,184Z" fill="#2b2b34" stroke="#2b2b34" stroke-width="1.51"/><path d="M273,147L232,93L228,136Z" fill="#33333d" stroke="#33333d" stroke-width="1.51"/><path d="M284,469L340,463L287,417Z" fill="#25252f" stroke="#25252f" stroke-width="1.51"/><path d="M199,466L225,485L232,423Z" fill="#2a2a34" stroke="#2a2a34" stroke-width="1.51"/><path d="M284,469L341,512L340,463Z" fill="#252530" stroke="#252530" stroke-width="1.51"/><path d="M178,519L225,485L199,466Z" fill="#2c2c37" stroke="#2c2c37" stroke-width="1.51"/><path d="M385,194L367,151L329,184Z" fill="#292933" stroke="#292933" stroke-width="1.51"/><path d="M421,185L367,151L385,194Z" fill="#272730" stroke="#272730" stroke-width="1.51"/><path d="M436,416L386,390L368,435Z" fill="#1d1d25" stroke="#1d1d25" stroke-width="1.51"/><path d="M436,416L430,375L386,390Z" fill="#1c1c25" stroke="#1c1c25" stroke-width="1.51"/><path d="M150,181L81,196L131,235Z" fill="#34343e" stroke="#34343e" stroke-width="1.51"/><path d="M197,152L132,142L150,181Z" fill="#34343e" stroke="#34343e" stroke-width="1.51"/><path d="M177,87L132,142L197,152Z" fill="#35353f" stroke="#35353f" stroke-width="1.51"/><path d="M98,237L48,278L98,280Z" fill="#32323d" stroke="#32323d" stroke-width="1.51"/><path d="M132,142L81,196L150,181Z" fill="#35353f" stroke="#35353f" stroke-width="1.51"/><path d="M470,197L421,185L423,243Z" fill="#292933" stroke="#292933" stroke-width="1.51"/><path d="M423,243L421,185L385,194Z" fill="#272731" stroke="#272731" stroke-width="1.51"/><path d="M130,416L148,485L197,427Z" fill="#2a2a34" stroke="#2a2a34" stroke-width="1.51"/><path d="M102,386L95,433L130,416Z" fill="#292932" stroke="#292932" stroke-width="1.51"/><path d="M52,416L95,433L102,386Z" fill="#292933" stroke="#292933" stroke-width="1.51"/><path d="M40,367L102,386L92,338Z" fill="#2a2a34" stroke="#2a2a34" stroke-width="1.51"/><path d="M47,238L48,278L98,237Z" fill="#32323d" stroke="#32323d" stroke-width="1.51"/><path d="M228,136L177,87L197,152Z" fill="#34343e" stroke="#34343e" stroke-width="1.51"/><path d="M281,88L232,93L273,147Z" fill="#32323d" stroke="#32323d" stroke-width="1.51"/><path d="M281,88L273,147L336,142Z" fill="#2f2f39" stroke="#2f2f39" stroke-width="1.51"/><path d="M95,433L148,485L130,416Z" fill="#2b2b35" stroke="#2b2b35" stroke-width="1.51"/><path d="M430,375L465,336L431,324Z" fill="#22212b" stroke="#22212b" stroke-width="1.51"/><path d="M431,324L478,276L425,289Z" fill="#25252f" stroke="#25252f" stroke-width="1.51"/><path d="M430,375L466,372L465,336Z" fill="#20202a" stroke="#20202a" stroke-width="1.51"/><path d="M422,465L436,416L368,435Z" fill="#1f1f28" stroke="#1f1f28" stroke-width="1.51"/><path d="M335,92L281,88L336,142Z" fill="#2e2e37" stroke="#2e2e37" stroke-width="1.51"/><path d="M335,92L336,142L387,105Z" fill="#2b2b34" stroke="#2b2b34" stroke-width="1.51"/><path d="M81,196L47,238L98,237Z" fill="#33333e" stroke="#33333e" stroke-width="1.51"/><path d="M225,485L233,521L284,469Z" fill="#2b2b37" stroke="#2b2b37" stroke-width="1.51"/><path d="M340,463L385,484L368,435Z" fill="#21212b" stroke="#21212b" stroke-width="1.51"/><path d="M178,519L233,521L225,485Z" fill="#2d2d38" stroke="#2d2d38" stroke-width="1.51"/><path d="M7,324L35,321L-10,283Z" fill="#2e2e39" stroke="#2e2e39" stroke-width="1.51"/><path d="M48,278L35,321L92,338Z" fill="#2e2e38" stroke="#2e2e38" stroke-width="1.51"/><path d="M233,521L287,522L284,469Z" fill="#2b2b36" stroke="#2b2b36" stroke-width="1.51"/><path d="M436,416L466,372L430,375Z" fill="#1e1e27" stroke="#1e1e27" stroke-width="1.51"/><path d="M341,512L385,484L340,463Z" fill="#23232d" stroke="#23232d" stroke-width="1.51"/><path d="M35,321L40,367L92,338Z" fill="#2b2b36" stroke="#2b2b36" stroke-width="1.51"/><path d="M517,337L478,276L465,336Z" fill="#262631" stroke="#262631" stroke-width="1.51"/><path d="M465,336L478,276L431,324Z" fill="#25252f" stroke="#25252f" stroke-width="1.51"/><path d="M387,105L336,142L367,151Z" fill="#2a2a33" stroke="#2a2a33" stroke-width="1.51"/><path d="M287,522L341,512L284,469Z" fill="#282833" stroke="#282833" stroke-width="1.51"/><path d="M478,276L474,238L423,243Z" fill="#292934" stroke="#292934" stroke-width="1.51"/><path d="M420,129L387,105L367,151Z" fill="#282831" stroke="#282831" stroke-width="1.51"/><path d="M132,142L95,134L81,196Z" fill="#35353e" stroke="#35353e" stroke-width="1.51"/><path d="M232,93L177,87L228,136Z" fill="#34343d" stroke="#34343d" stroke-width="1.51"/><path d="M228,40L177,87L232,93Z" fill="#34343e" stroke="#34343e" stroke-width="1.51"/><path d="M148,485L178,519L199,466Z" fill="#2d2d38" stroke="#2d2d38" stroke-width="1.51"/><path d="M128,520L178,519L148,485Z" fill="#2f2f39" stroke="#2f2f39" stroke-width="1.51"/><path d="M81,196L40,190L47,238Z" fill="#33333e" stroke="#33333e" stroke-width="1.51"/><path d="M131,104L95,134L132,142Z" fill="#36363f" stroke="#36363f" stroke-width="1.51"/><path d="M95,433L88,467L148,485Z" fill="#2c2c36" stroke="#2c2c36" stroke-width="1.51"/><path d="M40,367L52,416L102,386Z" fill="#282831" stroke="#282831" stroke-width="1.51"/><path d="M385,484L422,465L368,435Z" fill="#1f1f28" stroke="#1f1f28" stroke-width="1.51"/><path d="M436,416L473,430L466,372Z" fill="#202029" stroke="#202029" stroke-width="1.51"/><path d="M419,524L422,465L385,484Z" fill="#22222c" stroke="#22222c" stroke-width="1.51"/><path d="M177,87L131,104L132,142Z" fill="#35353e" stroke="#35353e" stroke-width="1.51"/><path d="M52,416L88,467L95,433Z" fill="#2b2b35" stroke="#2b2b35" stroke-width="1.51"/><path d="M420,129L367,151L421,185Z" fill="#282831" stroke="#282831" stroke-width="1.51"/><path d="M462,151L420,129L421,185Z" fill="#2a2a34" stroke="#2a2a34" stroke-width="1.51"/><path d="M474,238L470,197L423,243Z" fill="#292934" stroke="#292934" stroke-width="1.51"/><path d="M519,225L470,197L474,238Z" fill="#2b2b37" stroke="#2b2b37" stroke-width="1.51"/><path d="M49,131L40,190L81,196Z" fill="#35343f" stroke="#35343f" stroke-width="1.51"/><path d="M-10,283L35,321L48,278Z" fill="#2f2f3b" stroke="#2f2f3b" stroke-width="1.51"/><path d="M40,367L-8,391L52,416Z" fill="#282832" stroke="#282832" stroke-width="1.51"/><path d="M35,321L7,324L40,367Z" fill="#2c2c36" stroke="#2c2c36" stroke-width="1.51"/><path d="M2,230L48,278L47,238Z" fill="#32323e" stroke="#32323e" stroke-width="1.51"/><path d="M244,579L287,522L233,521Z" fill="#2c2c39" stroke="#2c2c39" stroke-width="1.51"/><path d="M293,564L341,512L287,522Z" fill="#292934" stroke="#292934" stroke-width="1.51"/><path d="M88,467L128,520L148,485Z" fill="#2e2e38" stroke="#2e2e38" stroke-width="1.51"/><path d="M466,372L517,337L465,336Z" fill="#23232d" stroke="#23232d" stroke-width="1.51"/><path d="M422,465L473,430L436,416Z" fill="#20202a" stroke="#20202a" stroke-width="1.51"/><path d="M281,88L276,47L232,93Z" fill="#32323d" stroke="#32323d" stroke-width="1.51"/><path d="M335,92L319,55L281,88Z" fill="#2e2e38" stroke="#2e2e38" stroke-width="1.51"/><path d="M377,51L319,55L335,92Z" fill="#2c2c35" stroke="#2c2c35" stroke-width="1.51"/><path d="M377,51L335,92L387,105Z" fill="#2a2a33" stroke="#2a2a33" stroke-width="1.51"/><path d="M319,55L276,47L281,88Z" fill="#2f2f3a" stroke="#2f2f3a" stroke-width="1.51"/><path d="M145,40L104,82L131,104Z" fill="#36363f" stroke="#36363f" stroke-width="1.51"/><path d="M420,129L428,101L387,105Z" fill="#292932" stroke="#292932" stroke-width="1.51"/><path d="M470,197L462,151L421,185Z" fill="#2a2a35" stroke="#2a2a35" stroke-width="1.51"/><path d="M422,465L480,472L473,430Z" fill="#23222d" stroke="#23222d" stroke-width="1.51"/><path d="M341,512L378,528L385,484Z" fill="#23232e" stroke="#23232e" stroke-width="1.51"/><path d="M339,579L378,528L341,512Z" fill="#252530" stroke="#252530" stroke-width="1.51"/><path d="M293,564L287,522L244,579Z" fill="#2c2b38" stroke="#2c2b38" stroke-width="1.51"/><path d="M40,190L2,230L47,238Z" fill="#33333e" stroke="#33333e" stroke-width="1.51"/><path d="M276,47L228,40L232,93Z" fill="#32323d" stroke="#32323d" stroke-width="1.51"/><path d="M177,565L233,521L178,519Z" fill="#2e2e3a" stroke="#2e2e3a" stroke-width="1.51"/><path d="M478,276L519,225L474,238Z" fill="#2b2b36" stroke="#2b2b36" stroke-width="1.51"/><path d="M470,197L530,146L462,151Z" fill="#2d2d38" stroke="#2d2d38" stroke-width="1.51"/><path d="M518,373L517,337L466,372Z" fill="#23232e" stroke="#23232e" stroke-width="1.51"/><path d="M2,230L-10,283L48,278Z" fill="#31313d" stroke="#31313d" stroke-width="1.51"/><path d="M464,102L428,101L420,129Z" fill="#2b2b34" stroke="#2b2b34" stroke-width="1.51"/><path d="M145,40L131,104L177,87Z" fill="#36353f" stroke="#36353f" stroke-width="1.51"/><path d="M131,104L104,82L95,134Z" fill="#36363f" stroke="#36363f" stroke-width="1.51"/><path d="M95,134L49,131L81,196Z" fill="#36353f" stroke="#36353f" stroke-width="1.51"/><path d="M40,190L3,198L2,230Z" fill="#33333f" stroke="#33333f" stroke-width="1.51"/><path d="M104,82L49,131L95,134Z" fill="#36363f" stroke="#36363f" stroke-width="1.51"/><path d="M130,564L177,565L178,519Z" fill="#2f2f3a" stroke="#2f2f3a" stroke-width="1.51"/><path d="M88,467L92,518L128,520Z" fill="#2f2f39" stroke="#2f2f39" stroke-width="1.51"/><path d="M43,483L92,518L88,467Z" fill="#2e2e39" stroke="#2e2e39" stroke-width="1.51"/><path d="M43,483L88,467L52,416Z" fill="#2b2b36" stroke="#2b2b36" stroke-width="1.51"/><path d="M517,337L524,290L478,276Z" fill="#292834" stroke="#292834" stroke-width="1.51"/><path d="M-1,130L3,198L40,190Z" fill="#35343f" stroke="#35343f" stroke-width="1.51"/><path d="M2,230L-42,274L-10,283Z" fill="#32323e" stroke="#32323e" stroke-width="1.51"/><path d="M522,416L518,373L466,372Z" fill="#21212c" stroke="#21212c" stroke-width="1.51"/><path d="M517,337L569,327L524,290Z" fill="#282833" stroke="#282833" stroke-width="1.51"/><path d="M130,564L178,519L128,520Z" fill="#2f2f3b" stroke="#2f2f3b" stroke-width="1.51"/><path d="M524,290L519,225L478,276Z" fill="#2b2b37" stroke="#2b2b37" stroke-width="1.51"/><path d="M462,151L464,102L420,129Z" fill="#2c2c35" stroke="#2c2c35" stroke-width="1.51"/><path d="M378,528L419,524L385,484Z" fill="#22222d" stroke="#22222d" stroke-width="1.51"/><path d="M473,430L522,416L466,372Z" fill="#21212b" stroke="#21212b" stroke-width="1.51"/><path d="M429,565L419,524L378,528Z" fill="#23232e" stroke="#23232e" stroke-width="1.51"/><path d="M177,565L244,579L233,521Z" fill="#2d2d39" stroke="#2d2d39" stroke-width="1.51"/><path d="M7,324L-8,391L40,367Z" fill="#2a2a34" stroke="#2a2a34" stroke-width="1.51"/><path d="M-55,384L-8,391L7,324Z" fill="#2a2a34" stroke="#2a2a34" stroke-width="1.51"/><path d="M-6,435L43,483L52,416Z" fill="#2b2b36" stroke="#2b2b36" stroke-width="1.51"/><path d="M196,0L181,33L228,40Z" fill="#33333f" stroke="#33333f" stroke-width="1.51"/><path d="M228,40L181,33L177,87Z" fill="#33333e" stroke="#33333e" stroke-width="1.51"/><path d="M276,47L240,-14L228,40Z" fill="#32323e" stroke="#32323e" stroke-width="1.51"/><path d="M319,55L294,2L276,47Z" fill="#2f2f3a" stroke="#2f2f3a" stroke-width="1.51"/><path d="M428,101L377,51L387,105Z" fill="#292932" stroke="#292932" stroke-width="1.51"/><path d="M473,521L480,472L422,465Z" fill="#24242f" stroke="#24242f" stroke-width="1.51"/><path d="M181,33L145,40L177,87Z" fill="#35343f" stroke="#35343f" stroke-width="1.51"/><path d="M104,82L37,88L49,131Z" fill="#363540" stroke="#363540" stroke-width="1.51"/><path d="M293,564L339,579L341,512Z" fill="#272733" stroke="#272733" stroke-width="1.51"/><path d="M320,612L339,579L293,564Z" fill="#282833" stroke="#282833" stroke-width="1.51"/><path d="M519,225L525,200L470,197Z" fill="#2d2d39" stroke="#2d2d39" stroke-width="1.51"/><path d="M561,227L525,200L519,225Z" fill="#2d2d39" stroke="#2d2d39" stroke-width="1.51"/><path d="M177,565L224,611L244,579Z" fill="#2d2d39" stroke="#2d2d39" stroke-width="1.51"/><path d="M92,518L130,564L128,520Z" fill="#30303b" stroke="#30303b" stroke-width="1.51"/><path d="M89,576L130,564L92,518Z" fill="#30303b" stroke="#30303b" stroke-width="1.51"/><path d="M428,101L423,38L377,51Z" fill="#292933" stroke="#292933" stroke-width="1.51"/><path d="M511,95L464,102L462,151Z" fill="#2d2d38" stroke="#2d2d38" stroke-width="1.51"/><path d="M532,466L522,416L473,430Z" fill="#24242f" stroke="#24242f" stroke-width="1.51"/><path d="M518,373L559,366L517,337Z" fill="#252530" stroke="#252530" stroke-width="1.51"/><path d="M-8,391L-6,435L52,416Z" fill="#292934" stroke="#292934" stroke-width="1.51"/><path d="M339,579L374,573L378,528Z" fill="#24242f" stroke="#24242f" stroke-width="1.51"/><path d="M419,524L473,521L422,465Z" fill="#24242f" stroke="#24242f" stroke-width="1.51"/><path d="M-10,283L-59,321L7,324Z" fill="#2e2e39" stroke="#2e2e39" stroke-width="1.51"/><path d="M-8,391L-56,415L-6,435Z" fill="#292934" stroke="#292934" stroke-width="1.51"/><path d="M-41,225L-42,274L2,230Z" fill="#32323e" stroke="#32323e" stroke-width="1.51"/><path d="M3,510L50,520L43,483Z" fill="#2e2e3b" stroke="#2e2e3b" stroke-width="1.51"/><path d="M43,483L50,520L92,518Z" fill="#2e2e3a" stroke="#2e2e3a" stroke-width="1.51"/><path d="M341,-13L294,2L319,55Z" fill="#2d2d38" stroke="#2d2d38" stroke-width="1.51"/><path d="M181,33L151,-1L145,40Z" fill="#35343f" stroke="#35343f" stroke-width="1.51"/><path d="M341,-13L319,55L377,51Z" fill="#2b2b36" stroke="#2b2b36" stroke-width="1.51"/><path d="M3,198L-41,225L2,230Z" fill="#33333e" stroke="#33333e" stroke-width="1.51"/><path d="M49,131L-1,130L40,190Z" fill="#35353f" stroke="#35353f" stroke-width="1.51"/><path d="M84,44L37,88L104,82Z" fill="#363640" stroke="#363640" stroke-width="1.51"/><path d="M-41,194L-41,225L3,198Z" fill="#33333f" stroke="#33333f" stroke-width="1.51"/><path d="M240,-14L196,0L228,40Z" fill="#33333e" stroke="#33333e" stroke-width="1.51"/><path d="M145,40L84,44L104,82Z" fill="#363540" stroke="#363540" stroke-width="1.51"/><path d="M8,96L-1,130L49,131Z" fill="#363540" stroke="#363540" stroke-width="1.51"/><path d="M480,472L532,466L473,430Z" fill="#252430" stroke="#252430" stroke-width="1.51"/><path d="M429,565L473,521L419,524Z" fill="#252531" stroke="#252531" stroke-width="1.51"/><path d="M94,5L84,44L145,40Z" fill="#363540" stroke="#363540" stroke-width="1.51"/><path d="M-6,435L-4,473L43,483Z" fill="#2c2c37" stroke="#2c2c37" stroke-width="1.51"/><path d="M-48,472L-4,473L-6,435Z" fill="#2c2c37" stroke="#2c2c37" stroke-width="1.51"/><path d="M283,627L320,612L293,564Z" fill="#2a2935" stroke="#2a2935" stroke-width="1.51"/><path d="M339,579L367,624L374,573Z" fill="#24242f" stroke="#24242f" stroke-width="1.51"/><path d="M192,623L224,611L177,565Z" fill="#2e2e3a" stroke="#2e2e3a" stroke-width="1.51"/><path d="M522,416L559,366L518,373Z" fill="#23232d" stroke="#23232d" stroke-width="1.51"/><path d="M524,290L561,227L519,225Z" fill="#2d2d39" stroke="#2d2d39" stroke-width="1.51"/><path d="M563,416L559,366L522,416Z" fill="#23232d" stroke="#23232d" stroke-width="1.51"/><path d="M468,46L423,38L428,101Z" fill="#2b2b35" stroke="#2b2b35" stroke-width="1.51"/><path d="M-42,274L-59,321L-10,283Z" fill="#2f2f3b" stroke="#2f2f3b" stroke-width="1.51"/><path d="M-41,225L-59,321L-42,274Z" fill="#31313c" stroke="#31313c" stroke-width="1.51"/><path d="M-1,130L-41,194L3,198Z" fill="#35343f" stroke="#35343f" stroke-width="1.51"/><path d="M-41,225L-61,150L-59,321Z" fill="#33323e" stroke="#33323e" stroke-width="1.51"/><path d="M417,609L429,565L374,573Z" fill="#23232e" stroke="#23232e" stroke-width="1.51"/><path d="M374,573L429,565L378,528Z" fill="#22222d" stroke="#22222d" stroke-width="1.51"/><path d="M559,366L569,327L517,337Z" fill="#262631" stroke="#262631" stroke-width="1.51"/><path d="M525,200L530,146L470,197Z" fill="#2e2e39" stroke="#2e2e39" stroke-width="1.51"/><path d="M464,102L468,46L428,101Z" fill="#2c2c36" stroke="#2c2c36" stroke-width="1.51"/><path d="M572,278L561,227L524,290Z" fill="#2c2c38" stroke="#2c2c38" stroke-width="1.51"/><path d="M283,627L293,564L244,579Z" fill="#2c2b38" stroke="#2c2b38" stroke-width="1.51"/><path d="M231,-55L240,-14L286,-61Z" fill="#32323e" stroke="#32323e" stroke-width="1.51"/><path d="M294,2L240,-14L276,47Z" fill="#31313d" stroke="#31313d" stroke-width="1.51"/><path d="M557,187L530,146L525,200Z" fill="#2e2e3a" stroke="#2e2e3a" stroke-width="1.51"/><path d="M569,327L572,278L524,290Z" fill="#2a2935" stroke="#2a2935" stroke-width="1.51"/><path d="M129,610L192,623L177,565Z" fill="#2f2f3a" stroke="#2f2f3a" stroke-width="1.51"/><path d="M50,520L89,576L92,518Z" fill="#30303b" stroke="#30303b" stroke-width="1.51"/><path d="M38,576L89,576L50,520Z" fill="#2f2f3b" stroke="#2f2f3b" stroke-width="1.51"/><path d="M-59,321L-55,384L7,324Z" fill="#2b2b36" stroke="#2b2b36" stroke-width="1.51"/><path d="M187,-47L151,-1L196,0Z" fill="#34343f" stroke="#34343f" stroke-width="1.51"/><path d="M196,0L151,-1L181,33Z" fill="#35343f" stroke="#35343f" stroke-width="1.51"/><path d="M-1,130L-61,150L-41,194Z" fill="#35343f" stroke="#35343f" stroke-width="1.51"/><path d="M37,88L8,96L49,131Z" fill="#363540" stroke="#363540" stroke-width="1.51"/><path d="M44,52L8,96L37,88Z" fill="#363541" stroke="#363541" stroke-width="1.51"/><path d="M516,518L480,472L473,521Z" fill="#272733" stroke="#272733" stroke-width="1.51"/><path d="M516,518L532,466L480,472Z" fill="#272733" stroke="#272733" stroke-width="1.51"/><path d="M561,227L557,187L525,200Z" fill="#2e2e3a" stroke="#2e2e3a" stroke-width="1.51"/><path d="M573,136L557,187L608,178Z" fill="#2f2f3a" stroke="#2f2f3a" stroke-width="1.51"/><path d="M192,623L283,627L224,611Z" fill="#2d2d39" stroke="#2d2d39" stroke-width="1.51"/><path d="M224,611L283,627L244,579Z" fill="#2d2d39" stroke="#2d2d39" stroke-width="1.51"/><path d="M-4,473L3,510L43,483Z" fill="#2d2d39" stroke="#2d2d39" stroke-width="1.51"/><path d="M-48,472L3,510L-4,473Z" fill="#2d2d39" stroke="#2d2d39" stroke-width="1.51"/><path d="M129,610L177,565L130,564Z" fill="#2f2f3b" stroke="#2f2f3b" stroke-width="1.51"/><path d="M84,44L44,52L37,88Z" fill="#353540" stroke="#353540" stroke-width="1.51"/><path d="M39,-1L44,52L84,44Z" fill="#353540" stroke="#353540" stroke-width="1.51"/><path d="M372,-10L341,-13L377,51Z" fill="#2a2a34" stroke="#2a2a34" stroke-width="1.51"/><path d="M532,466L563,416L522,416Z" fill="#252530" stroke="#252530" stroke-width="1.51"/><path d="M559,366L622,339L569,327Z" fill="#262631" stroke="#262631" stroke-width="1.51"/><path d="M565,97L511,95L530,146Z" fill="#30303b" stroke="#30303b" stroke-width="1.51"/><path d="M530,146L511,95L462,151Z" fill="#2f2f39" stroke="#2f2f39" stroke-width="1.51"/><path d="M-55,384L-56,415L-8,391Z" fill="#282832" stroke="#282832" stroke-width="1.51"/><path d="M-59,321L-56,415L-55,384Z" fill="#292933" stroke="#292933" stroke-width="1.51"/><path d="M89,576L129,610L130,564Z" fill="#30303b" stroke="#30303b" stroke-width="1.51"/><path d="M94,615L129,610L89,576Z" fill="#30303b" stroke="#30303b" stroke-width="1.51"/><path d="M511,95L468,46L464,102Z" fill="#2d2d38" stroke="#2d2d38" stroke-width="1.51"/><path d="M423,38L372,-10L377,51Z" fill="#282832" stroke="#282832" stroke-width="1.51"/><path d="M427,6L372,-10L423,38Z" fill="#292933" stroke="#292933" stroke-width="1.51"/><path d="M151,-1L94,5L145,40Z" fill="#363540" stroke="#363540" stroke-width="1.51"/><path d="M136,-47L94,5L151,-1Z" fill="#363540" stroke="#363540" stroke-width="1.51"/><path d="M475,566L516,518L473,521Z" fill="#282834" stroke="#282834" stroke-width="1.51"/><path d="M532,466L573,470L563,416Z" fill="#262631" stroke="#262631" stroke-width="1.51"/><path d="M283,627L367,624L320,612Z" fill="#272733" stroke="#272733" stroke-width="1.51"/><path d="M320,612L367,624L339,579Z" fill="#262631" stroke="#262631" stroke-width="1.51"/><path d="M429,565L475,566L473,521Z" fill="#262632" stroke="#262632" stroke-width="1.51"/><path d="M468,46L427,6L423,38Z" fill="#2b2b35" stroke="#2b2b35" stroke-width="1.51"/><path d="M483,614L475,566L429,565Z" fill="#262632" stroke="#262632" stroke-width="1.51"/><path d="M6,574L38,576L50,520Z" fill="#2f2f3c" stroke="#2f2f3c" stroke-width="1.51"/><path d="M-56,415L-48,472L-6,435Z" fill="#2b2b36" stroke="#2b2b36" stroke-width="1.51"/><path d="M367,624L417,609L374,573Z" fill="#23232d" stroke="#23232d" stroke-width="1.51"/><path d="M6,574L50,520L3,510Z" fill="#2f2f3c" stroke="#2f2f3c" stroke-width="1.51"/><path d="M-52,94L-61,150L-1,130Z" fill="#363540" stroke="#363540" stroke-width="1.51"/><path d="M-41,194L-61,150L-41,225Z" fill="#34343f" stroke="#34343f" stroke-width="1.51"/><path d="M-52,94L-1,130L8,96Z" fill="#363540" stroke="#363540" stroke-width="1.51"/><path d="M-52,94L8,96L-12,40Z" fill="#363541" stroke="#363541" stroke-width="1.51"/><path d="M41,609L94,615L89,576Z" fill="#30303b" stroke="#30303b" stroke-width="1.51"/><path d="M129,610L94,615L192,623Z" fill="#30303b" stroke="#30303b" stroke-width="1.51"/><path d="M378,-48L335,-43L341,-13Z" fill="#2b2b35" stroke="#2b2b35" stroke-width="1.51"/><path d="M341,-13L335,-43L294,2Z" fill="#2d2d38" stroke="#2d2d38" stroke-width="1.51"/><path d="M240,-14L187,-47L196,0Z" fill="#33333f" stroke="#33333f" stroke-width="1.51"/><path d="M378,-48L341,-13L372,-10Z" fill="#2a2a34" stroke="#2a2a34" stroke-width="1.51"/><path d="M231,-55L187,-47L240,-14Z" fill="#33333e" stroke="#33333e" stroke-width="1.51"/><path d="M286,-61L240,-14L294,2Z" fill="#31313c" stroke="#31313c" stroke-width="1.51"/><path d="M557,187L573,136L530,146Z" fill="#2f2f3a" stroke="#2f2f3a" stroke-width="1.51"/><path d="M511,95L523,37L468,46Z" fill="#2e2e3a" stroke="#2e2e3a" stroke-width="1.51"/><path d="M417,-39L372,-10L427,6Z" fill="#292933" stroke="#292933" stroke-width="1.51"/><path d="M608,178L557,187L561,227Z" fill="#2e2e3a" stroke="#2e2e3a" stroke-width="1.51"/><path d="M576,530L573,470L516,518Z" fill="#292936" stroke="#292936" stroke-width="1.51"/><path d="M516,518L573,470L532,466Z" fill="#282834" stroke="#282834" stroke-width="1.51"/><path d="M626,292L572,278L569,327Z" fill="#2a2935" stroke="#2a2935" stroke-width="1.51"/><path d="M626,292L613,246L572,278Z" fill="#2b2b38" stroke="#2b2b38" stroke-width="1.51"/><path d="M572,278L613,246L561,227Z" fill="#2d2d39" stroke="#2d2d39" stroke-width="1.51"/><path d="M622,339L559,366L618,390Z" fill="#24242f" stroke="#24242f" stroke-width="1.51"/><path d="M335,-43L286,-61L294,2Z" fill="#2e2e39" stroke="#2e2e39" stroke-width="1.51"/><path d="M-40,576L6,574L3,510Z" fill="#2f2f3c" stroke="#2f2f3c" stroke-width="1.51"/><path d="M38,576L41,609L89,576Z" fill="#2f2f3b" stroke="#2f2f3b" stroke-width="1.51"/><path d="M-12,40L8,96L44,52Z" fill="#353540" stroke="#353540" stroke-width="1.51"/><path d="M187,-47L136,-47L151,-1Z" fill="#35343f" stroke="#35343f" stroke-width="1.51"/><path d="M231,-55L136,-47L187,-47Z" fill="#34343f" stroke="#34343f" stroke-width="1.51"/><path d="M104,-50L136,-47L231,-55Z" fill="#35353f" stroke="#35353f" stroke-width="1.51"/><path d="M618,390L559,366L563,416Z" fill="#22222d" stroke="#22222d" stroke-width="1.51"/><path d="M39,-1L84,44L94,5Z" fill="#363541" stroke="#363541" stroke-width="1.51"/><path d="M484,-13L427,6L468,46Z" fill="#2c2c37" stroke="#2c2c37" stroke-width="1.51"/><path d="M417,-39L378,-48L372,-10Z" fill="#282832" stroke="#282832" stroke-width="1.51"/><path d="M335,-43L378,-48L286,-61Z" fill="#2c2c37" stroke="#2c2c37" stroke-width="1.51"/><path d="M622,339L626,292L569,327Z" fill="#282833" stroke="#282833" stroke-width="1.51"/><path d="M41,-55L39,-1L94,5Z" fill="#353540" stroke="#353540" stroke-width="1.51"/><path d="M573,136L565,97L530,146Z" fill="#30303b" stroke="#30303b" stroke-width="1.51"/><path d="M614,103L565,97L573,136Z" fill="#30303b" stroke="#30303b" stroke-width="1.51"/><path d="M6,574L41,609L38,576Z" fill="#2f2f3c" stroke="#2f2f3c" stroke-width="1.51"/><path d="M39,-1L-12,40L44,52Z" fill="#353541" stroke="#353541" stroke-width="1.51"/><path d="M622,434L618,390L563,416Z" fill="#24242e" stroke="#24242e" stroke-width="1.51"/><path d="M622,339L628,464L626,292Z" fill="#24242f" stroke="#24242f" stroke-width="1.51"/><path d="M613,246L608,178L561,227Z" fill="#2d2d39" stroke="#2d2d39" stroke-width="1.51"/><path d="M614,142L608,178L613,246Z" fill="#2e2e3a" stroke="#2e2e3a" stroke-width="1.51"/><path d="M565,97L523,37L511,95Z" fill="#30303b" stroke="#30303b" stroke-width="1.51"/><path d="M484,-13L417,-39L427,6Z" fill="#2b2b36" stroke="#2b2b36" stroke-width="1.51"/><path d="M475,566L525,570L516,518Z" fill="#292936" stroke="#292936" stroke-width="1.51"/><path d="M573,470L622,434L563,416Z" fill="#252531" stroke="#252531" stroke-width="1.51"/><path d="M483,614L525,570L475,566Z" fill="#282835" stroke="#282835" stroke-width="1.51"/><path d="M41,-55L104,-50L231,-55Z" fill="#363540" stroke="#363540" stroke-width="1.51"/><path d="M136,-47L104,-50L94,5Z" fill="#363540" stroke="#363540" stroke-width="1.51"/><path d="M417,609L483,614L429,565Z" fill="#252531" stroke="#252531" stroke-width="1.51"/><path d="M367,624L483,614L417,609Z" fill="#24242f" stroke="#24242f" stroke-width="1.51"/><path d="M6,574L-2,614L41,609Z" fill="#2f2f3c" stroke="#2f2f3c" stroke-width="1.51"/><path d="M-48,472L-59,530L3,510Z" fill="#2e2e3a" stroke="#2e2e3a" stroke-width="1.51"/><path d="M-56,415L-59,530L-48,472Z" fill="#2c2c38" stroke="#2c2c38" stroke-width="1.51"/><path d="M-59,321L-59,530L-56,415Z" fill="#2a2a34" stroke="#2a2a34" stroke-width="1.51"/><path d="M-61,150L-59,530L-59,321Z" fill="#2c2c37" stroke="#2c2c37" stroke-width="1.51"/><path d="M523,37L484,-13L468,46Z" fill="#2e2e3a" stroke="#2e2e3a" stroke-width="1.51"/><path d="M628,464L622,434L573,470Z" fill="#262632" stroke="#262632" stroke-width="1.51"/><path d="M618,390L622,434L622,339Z" fill="#22222d" stroke="#22222d" stroke-width="1.51"/><path d="M565,97L576,39L523,37Z" fill="#2f2f3b" stroke="#2f2f3b" stroke-width="1.51"/><path d="M512,-61L477,-48L484,-13Z" fill="#2e2e39" stroke="#2e2e39" stroke-width="1.51"/><path d="M608,178L614,142L573,136Z" fill="#2f2f3a" stroke="#2f2f3a" stroke-width="1.51"/><path d="M626,292L614,142L613,246Z" fill="#2d2d39" stroke="#2d2d39" stroke-width="1.51"/><path d="M525,570L576,530L516,518Z" fill="#2a2a37" stroke="#2a2a37" stroke-width="1.51"/><path d="M562,577L576,530L525,570Z" fill="#2a2a37" stroke="#2a2a37" stroke-width="1.51"/><path d="M41,-55L9,-7L39,-1Z" fill="#353541" stroke="#353541" stroke-width="1.51"/><path d="M39,-1L9,-7L-12,40Z" fill="#353541" stroke="#353541" stroke-width="1.51"/><path d="M-12,40L-62,38L-52,94Z" fill="#353540" stroke="#353540" stroke-width="1.51"/><path d="M-59,530L-40,576L3,510Z" fill="#2f2f3c" stroke="#2f2f3c" stroke-width="1.51"/><path d="M41,609L-2,614L94,615Z" fill="#2f2f3b" stroke="#2f2f3b" stroke-width="1.51"/><path d="M94,615L-2,614L192,623Z" fill="#30303b" stroke="#30303b" stroke-width="1.51"/><path d="M-40,576L-2,614L6,574Z" fill="#2f2f3c" stroke="#2f2f3c" stroke-width="1.51"/><path d="M622,434L628,464L622,339Z" fill="#24242e" stroke="#24242e" stroke-width="1.51"/><path d="M609,534L628,464L573,470Z" fill="#282834" stroke="#282834" stroke-width="1.51"/><path d="M614,142L614,103L573,136Z" fill="#30303b" stroke="#30303b" stroke-width="1.51"/><path d="M628,3L614,103L614,142Z" fill="#30303b" stroke="#30303b" stroke-width="1.51"/><path d="M576,530L609,534L573,470Z" fill="#292936" stroke="#292936" stroke-width="1.51"/><path d="M534,611L562,577L525,570Z" fill="#2a2a37" stroke="#2a2a37" stroke-width="1.51"/><path d="M-61,150L-62,38L-59,530Z" fill="#32323e" stroke="#32323e" stroke-width="1.51"/><path d="M-52,94L-62,38L-61,150Z" fill="#363541" stroke="#363541" stroke-width="1.51"/><path d="M-47,8L-62,38L-12,40Z" fill="#353541" stroke="#353541" stroke-width="1.51"/><path d="M528,-13L484,-13L523,37Z" fill="#2f2f3b" stroke="#2f2f3b" stroke-width="1.51"/><path d="M484,-13L477,-48L417,-39Z" fill="#2c2c37" stroke="#2c2c37" stroke-width="1.51"/><path d="M417,-39L477,-48L378,-48Z" fill="#2a2a34" stroke="#2a2a34" stroke-width="1.51"/><path d="M378,-48L512,-61L286,-61Z" fill="#282832" stroke="#282832" stroke-width="1.51"/><path d="M609,56L576,39L565,97Z" fill="#302f3b" stroke="#302f3b" stroke-width="1.51"/><path d="M9,-7L-47,8L-12,40Z" fill="#353541" stroke="#353541" stroke-width="1.51"/><path d="M104,-50L41,-55L94,5Z" fill="#363541" stroke="#363541" stroke-width="1.51"/><path d="M286,-61L41,-55L231,-55Z" fill="#34343f" stroke="#34343f" stroke-width="1.51"/><path d="M483,614L534,611L525,570Z" fill="#292936" stroke="#292936" stroke-width="1.51"/><path d="M566,620L534,611L483,614Z" fill="#2a2a37" stroke="#2a2a37" stroke-width="1.51"/><path d="M567,-14L528,-13L523,37Z" fill="#2f2f3c" stroke="#2f2f3c" stroke-width="1.51"/><path d="M-59,-49L-47,8L9,-7Z" fill="#353541" stroke="#353541" stroke-width="1.51"/><path d="M614,576L576,530L562,577Z" fill="#2a2a37" stroke="#2a2a37" stroke-width="1.51"/><path d="M614,576L609,534L576,530Z" fill="#2a2a37" stroke="#2a2a37" stroke-width="1.51"/><path d="M-40,576L-43,606L-2,614Z" fill="#2f2f3c" stroke="#2f2f3c" stroke-width="1.51"/><path d="M-59,530L-43,606L-40,576Z" fill="#2f2f3c" stroke="#2f2f3c" stroke-width="1.51"/><path d="M41,-55L8,-49L9,-7Z" fill="#353541" stroke="#353541" stroke-width="1.51"/><path d="M576,39L567,-14L523,37Z" fill="#2f2f3c" stroke="#2f2f3c" stroke-width="1.51"/><path d="M614,103L609,56L565,97Z" fill="#30303b" stroke="#30303b" stroke-width="1.51"/><path d="M628,3L567,-14L576,39Z" fill="#2f2f3c" stroke="#2f2f3c" stroke-width="1.51"/><path d="M528,-13L512,-61L484,-13Z" fill="#2f2f3b" stroke="#2f2f3b" stroke-width="1.51"/><path d="M534,611L566,620L562,577Z" fill="#2a2a37" stroke="#2a2a37" stroke-width="1.51"/><path d="M367,624L566,620L483,614Z" fill="#272733" stroke="#272733" stroke-width="1.51"/><path d="M628,625L566,620L367,624Z" fill="#2a2a37" stroke="#2a2a37" stroke-width="1.51"/><path d="M572,-48L512,-61L528,-13Z" fill="#2f2f3c" stroke="#2f2f3c" stroke-width="1.51"/><path d="M477,-48L512,-61L378,-48Z" fill="#2b2b37" stroke="#2b2b37" stroke-width="1.51"/><path d="M566,620L614,576L562,577Z" fill="#2a2a37" stroke="#2a2a37" stroke-width="1.51"/><path d="M609,534L614,576L628,464Z" fill="#2a2a37" stroke="#2a2a37" stroke-width="1.51"/><path d="M-47,8L-59,-49L-62,38Z" fill="#353541" stroke="#353541" stroke-width="1.51"/><path d="M8,-49L-59,-49L9,-7Z" fill="#353541" stroke="#353541" stroke-width="1.51"/><path d="M41,-55L-59,-49L8,-49Z" fill="#353541" stroke="#353541" stroke-width="1.51"/><path d="M567,-14L572,-48L528,-13Z" fill="#2f2f3c" stroke="#2f2f3c" stroke-width="1.51"/><path d="M628,-48L572,-48L567,-14Z" fill="#2f2f3c" stroke="#2f2f3c" stroke-width="1.51"/><path d="M609,56L628,3L576,39Z" fill="#2f2f3b" stroke="#2f2f3b" stroke-width="1.51"/><path d="M614,103L628,3L609,56Z" fill="#2f2f3b" stroke="#2f2f3b" stroke-width="1.51"/><path d="M626,292L628,3L614,142Z" fill="#2f2f3b" stroke="#2f2f3b" stroke-width="1.51"/><path d="M628,464L628,3L626,292Z" fill="#2c2c39" stroke="#2c2c39" stroke-width="1.51"/><path d="M566,620L628,625L614,576Z" fill="#2a2a37" stroke="#2a2a37" stroke-width="1.51"/><path d="M614,576L628,625L628,464Z" fill="#2a2a37" stroke="#2a2a37" stroke-width="1.51"/><path d="M283,627L628,625L367,624Z" fill="#24242f" stroke="#24242f" stroke-width="1.51"/><path d="M628,3L628,-48L567,-14Z" fill="#2f2f3c" stroke="#2f2f3c" stroke-width="1.51"/><path d="M572,-48L628,-48L512,-61Z" fill="#2f2f3c" stroke="#2f2f3c" stroke-width="1.51"/></svg>