<?xml version="1.0" encoding="utf-8"?>
<!-- Generator: Adobe Illustrator 22.0.1, SVG Export Plug-In . SVG Version: 6.00 Build 0)  -->
<svg version="1.1" id="Layer_1" xmlns="http://www.w3.org/2000/svg" xmlns:xlink="http://www.w3.org/1999/xlink" x="0px" y="0px"
	 viewBox="0 0 792 378" style="enable-background:new 0 0 792 378;" xml:space="preserve">
<style type="text/css">
	.st0{fill:#E45126;}
	.st1{fill:#F1682B;}
	.st2{fill:#EBEBEB;}
	.st3{fill:#FFFFFF;}
	.st4{fill:#1673B6;}
	.st5{fill:#35A9DB;}
	.st6{fill:#E4A227;}
	.st7{fill:#F0BF26;}
	.st8{font-family:'PTSans-Bold';}
	.st9{font-size:28px;}
</style>
<g>
	<polygon class="st0" points="29.8,329.8 5,51.4 277.7,51.4 252.9,329.7 141.2,360.7 	"/>
	<polygon class="st1" points="141.4,337 231.6,312 252.8,74.1 141.4,74.1 	"/>
	<polygon class="st2" points="141.4,177.4 96.2,177.4 93.1,142.4 141.4,142.4 141.4,108.3 141.2,108.3 55.8,108.3 56.6,117.5 
		65,211.5 141.4,211.5 	"/>
	<polygon class="st2" points="141.4,266.1 141.2,266.1 103.2,255.8 100.8,228.6 82.3,228.6 66.5,228.6 71.3,282.2 141.2,301.6 
		141.4,301.6 	"/>
	<polygon class="st3" points="141.2,177.4 141.2,211.5 183.3,211.5 179.3,255.8 141.2,266.1 141.2,301.6 211.2,282.2 211.8,276.5 
		219.8,186.6 220.6,177.4 211.4,177.4 	"/>
	<polygon class="st3" points="141.2,108.3 141.2,129.5 141.2,142.4 141.2,142.4 223.6,142.4 223.6,142.4 223.7,142.4 224.4,134.8 
		226,117.5 226.8,108.3 	"/>
</g>
<g>
	<polygon class="st4" points="539.4,329.8 514.6,51.4 787.3,51.4 762.5,329.8 650.8,360.7 	"/>
	<polygon class="st5" points="651,337 741.2,312 762.5,74.2 651,74.2 	"/>
	<g>
		<polygon class="st3" points="651,175 696.2,175 699.3,140.1 651,140.1 651,105.9 651.1,105.9 736.6,105.9 735.8,115.1 
			727.4,209.2 651,209.2 		"/>
		<polygon class="st2" points="651.2,263.7 651,263.7 613,253.5 610.6,226.2 592.1,226.2 576.3,226.2 581.1,279.9 651,299.3 
			651.2,299.2 		"/>
		<polygon class="st3" points="693.3,207.7 689.2,253.5 651.1,263.7 651.1,299.3 721.1,279.9 721.6,274.1 727.5,207.7 		"/>
		<polygon class="st2" points="651.1,105.9 651.1,127.1 651.1,140 651.1,140.1 568.7,140.1 568.7,140.1 568.6,140.1 567.9,132.4 
			566.4,115.1 565.6,105.9 		"/>
		<polygon class="st2" points="651,175 651,196.2 651,209.1 651,209.2 613.5,209.2 613.5,209.2 613.4,209.2 612.8,201.5 
			611.2,184.2 610.4,175 		"/>
	</g>
</g>
<g>
	<polygon class="st6" points="262.8,333.8 233.2,1 559.2,1 529.5,333.7 396,370.8 	"/>
	<polygon class="st7" points="395.9,342.1 503.8,312.1 529.2,27.8 395.9,27.8 	"/>
	<polygon class="st2" points="395.8,257.3 395.7,257.3 350.2,245 347.3,212.5 325.2,212.5 306.3,212.5 312,276.6 395.6,299.8 
		395.8,299.7 	"/>
	<polygon class="st2" points="401.3,192.1 401.3,151.2 351.1,151.2 357,87.2 401.4,86 401.3,43.6 320.1,43.6 317,73.6 307.5,181.1 
		306.5,192.1 317.5,192.1 	"/>
	<polygon class="st3" points="401.1,86.1 401.2,86 445.8,88.7 449.6,130.8 471.7,130.8 490.6,130.8 483.4,52 401.2,43.5 401.1,43.6 
			"/>
	<polyline class="st3" points="486.4,86.2 482.9,43.6 396.7,43.6 396.7,70 396.7,86.1 396.7,86.2 486.4,86.2 	"/>
	<polygon class="st3" points="395.7,151.3 395.7,192.1 446,192.1 441.2,245 395.7,257.3 395.7,299.8 479.4,276.6 480,269.7 
		489.6,162.2 490.6,151.3 479.6,151.3 	"/>
	<path class="st3" d="M481.1,84.4"/>
</g>
<text transform="matrix(1 0 0 1 105.5576 203)" class="st1 st8 st9">HTML</text>
<text transform="matrix(1 0 0 1 324.5576 180)" class="st6 st8 st9">JAVASCRIPT</text>
<text transform="matrix(1 0 0 1 628.5576 201)" class="st5 st8 st9">CSS</text>
</svg>
